<svg xmlns="http://www.w3.org/2000/svg" xmlns:xlink="http://www.w3.org/1999/xlink" fill="none" height="192" viewBox="0 0 150 150" width="192"><clipPath id="a"><path d="m0 0h150v150h-150z"/></clipPath><g clip-path="url(#a)"><path d="m150 0h-150v150h150z" fill="#29b5e8"/><path clip-rule="evenodd" d="m130.375 67.2532-14.096 8.1221 14.096 8.0536c.843.4872 1.581 1.1357 2.174 1.9084.592.7727 1.026 1.6545 1.278 2.5951.251.9406.315 1.9215.188 2.8867-.128.9652-.444 1.8959-.931 2.7388-.488.843-1.136 1.5817-1.909 2.174s-1.654 1.0267-2.595 1.2782-1.921.3154-2.887.1878c-.965-.1275-1.896-.444-2.739-.9312l-25.2559-14.5496c-1.1575-.6696-2.1128-1.6394-2.765-2.8068-.6523-1.1674-.9773-2.4893-.9408-3.826.0198-.5792.1089-1.1538.2653-1.7117.517-1.8711 1.7458-3.4654 3.4234-4.4419l25.256-14.4983c.847-.4892 1.782-.8067 2.751-.9343.97-.1275 1.955-.0627 2.899.1909.945.2536 1.83.6909 2.605 1.287.775.596 1.425 1.3391 1.913 2.1866.49.8402.808 1.7693.935 2.7334.128.964.063 1.9439-.191 2.8826-.254.9388-.692 1.8177-1.288 2.5859-.597.7681-1.34 1.4101-2.186 1.8887zm-13.343 39.3698-25.2478-14.5243c-1.1296-.6483-2.4091-.9896-3.7115-.9902s-2.5823.3397-3.7124.987c-1.1301.6472-2.0712 1.579-2.7297 2.7026-.6585 1.1237-1.0115 2.4001-1.0239 3.7024v29.0135c.0654 1.928.8772 3.755 2.264 5.095 1.3869 1.341 3.2403 2.09 5.1691 2.09 1.9289 0 3.7823-.749 5.1691-2.09 1.3868-1.34 2.1986-3.167 2.264-5.095v-16.261l14.1301 8.122c.843.488 1.774.805 2.739.933.966.128 1.947.064 2.888-.187s1.823-.685 2.596-1.277c.774-.592 1.423-1.331 1.91-2.174.488-.843.805-1.773.933-2.739.128-.965.065-1.946-.186-2.887s-.685-1.824-1.277-2.597-1.331-1.422-2.174-1.91zm-29.0992-28.3806-10.527 10.3986c-.3601.3349-.8269.5319-1.318.5563h-3.0897c-.49-.0294-.9551-.2257-1.318-.5563l-10.4671-10.4329c-.3274-.3573-.521-.817-.5478-1.3009v-3.081c.0283-.4861.2215-.9481.5478-1.3095l10.4671-10.4329c.3637-.3281.829-.5214 1.318-.5477h3.0897c.4899.0228.9562.2166 1.318.5477l10.4928 10.4329c.3237.3623.514.8243.5392 1.3095v3.081c-.0237.483-.2143.9428-.5392 1.3009zm-8.3874-2.8928c-.0404-.499-.2485-.9696-.5905-1.3352l-3.0383-3.004c-.3641-.3275-.8291-.5207-1.318-.5478h-.1113c-.4867.0255-.9495.2191-1.3094.5478l-3.0383 3.004c-.3262.3676-.5165.8358-.5392 1.3266v.1113c.0215.4834.2124.9439.5392 1.3009l3.0554 2.9955c.3607.3274.823.5208 1.3094.5477h.1113c.4889-.027.9539-.2203 1.318-.5477l3.0383-3.0212c.3282-.3576.5244-.8166.5563-1.3009zm-47.4914-31.2217 25.2563 14.4811c1.1308.648 2.4115.989 3.7149.9889 1.3033 0 2.584-.3409 3.7148-.989 1.1309-.648 2.0725-1.5806 2.7314-2.7051.659-1.1245 1.0123-2.4018 1.0249-3.7051v-28.9879c-.0654-1.9277-.8772-3.7546-2.264-5.0952s-3.2402-2.0899-5.1691-2.0899c-1.9288 0-3.7822.7493-5.169 2.0899-1.3869 1.3406-2.1987 3.1675-2.2641 5.0952v16.2613l-14.1473-8.1307c-.8429-.4877-1.7737-.8047-2.7392-.9328-.9654-.1281-1.9466-.0647-2.8876.1864s-1.8232.6852-2.5965 1.2773c-.7732.5921-1.4222 1.3307-1.91 2.1736-.4878.843-.8048 1.7738-.9329 2.7392-.128.9655-.0647 1.9467.1864 2.8876.2512.941.6852 1.8233 1.2773 2.5965.5921.7733 1.3307 1.4223 2.1737 1.9101zm55.4252 15.4739c1.4914.118 2.9836-.2193 4.2793-.9671l25.2475-14.5496c.843-.4877 1.582-1.1368 2.174-1.91s1.026-1.6555 1.277-2.5965.315-1.9222.187-2.8876c-.128-.9655-.445-1.8962-.933-2.7392-.488-.8429-1.137-1.5816-1.91-2.1737-.774-.5921-1.656-1.0261-2.597-1.2772-1.9-.5072-3.924-.2387-5.627.7464l-14.1298 8.1991v-16.2613c-.0654-1.9277-.8772-3.7546-2.264-5.0952-1.3868-1.3405-3.2402-2.0899-5.1691-2.0899-1.9288 0-3.7822.7494-5.169 2.0899-1.3869 1.3406-2.1987 3.1675-2.2641 5.0952v29.0136c-.0023 1.8784.7086 3.6876 1.9892 5.0619 1.2805 1.3743 3.0351 2.2111 4.909 2.3412zm-25.8554 31.5298c-1.4916-.1213-2.9847.2162-4.2793.9671l-25.2905 14.4893c-1.7024.985-2.9438 2.607-3.451 4.507s-.2387 3.924.7465 5.627c.9851 1.702 2.6061 2.943 4.5065 3.451 1.9004.507 3.9244.238 5.6268-.747l14.1473-8.122v16.261c.0654 1.928.8772 3.755 2.2641 5.096 1.3868 1.34 3.2402 2.09 5.169 2.09 1.9289 0 3.7823-.75 5.1691-2.09 1.3868-1.341 2.1986-3.168 2.264-5.096v-29.0645c-.0038-1.869-.7144-3.6673-1.9891-5.0341s-3.0192-2.2009-4.8834-2.3348zm-6.8468-13.5825c.4875-1.6032.414-3.3247-.2083-4.8806-.6224-1.5559-1.7564-2.8532-3.2152-3.6779l-25.2306-14.541c-1.704-.976-3.7248-1.2385-5.6216-.7303-1.8968.5083-3.5155 1.7461-4.5032 3.4433-.4889.84-.8065 1.7686-.9343 2.732-.1278.9635-.0632 1.9428.1899 2.8811.2531.9384.6897 1.8173 1.2846 2.5858.595.7686 1.3364 1.4115 2.1814 1.8917l14.096 8.1221-14.096 8.0536c-.8429.4861-1.5819 1.1334-2.1746 1.9051-.5928.7717-1.0277 1.6526-1.2801 2.5923-.2523.9398-.317 1.9201-.1905 2.8849s.4418 1.8952.9279 2.7382c.4861.8429 1.1335 1.5819 1.9051 2.1746.7717.5928 1.6526 1.0277 2.5924 1.2801.9397.2523 1.92.317 2.8848.1905s1.8952-.4418 2.7382-.9279l25.2306-14.5496c1.6248-.9071 2.8451-2.3965 3.4149-4.168z" fill="#fff" fill-rule="evenodd"/></g></svg>