<?xml version="1.0" encoding="utf-8" ?><svg xmlns="http://www.w3.org/2000/svg" xmlns:xlink="http://www.w3.org/1999/xlink" width="1024" height="1024" viewBox="0 0 1024 1024"><path fill="#423736" transform="scale(2 2)" d="M130.961 77.6522C134.23 77.5151 137.154 77.3752 140.28 78.6231C147.65 81.5652 154.793 85.5823 162.007 88.9286L219.506 115.956L317.435 161.982L353.795 178.967C359.33 181.58 369.92 185.517 374.19 189.4C378.944 193.722 379.491 198.506 379.733 204.603C380.133 214.691 379.838 224.733 379.814 234.819L379.725 283.765L379.558 332.806C379.535 340.975 379.791 349.231 379.484 357.387C379.466 357.867 379.437 358.237 379.211 358.671C379.32 358.859 379.491 359.024 379.539 359.237C379.827 360.504 378.631 377.932 378.125 379.872C377.739 381.352 374.999 383.951 375.22 385.148C374.964 385.275 374.715 385.364 374.437 385.43C370.148 386.452 364.905 382.849 361.384 380.724L361.681 380.314L361.474 379.82C360.043 378.747 358.037 378.088 356.43 377.221C353.078 375.413 349.746 373.496 346.308 371.859C340.834 369.253 335.176 366.993 329.672 364.435C324.155 361.871 318.769 358.67 313.141 356.411C311.808 355.876 310.693 355.609 309.246 355.56C308.272 355.436 307.301 355.259 306.331 355.1C303.491 353.86 300.749 352.214 297.961 350.843C292.76 348.286 287.469 345.884 282.199 343.471C270.035 337.9 257.606 332.893 245.53 327.152C242.451 324.254 238.18 322.93 234.481 321.093C232.212 320.175 229.771 319.643 227.481 318.692C220.062 315.612 212.831 312.051 205.522 308.721L166.509 290.815C158.051 286.845 149.107 283.756 140.993 279.085C138.864 277.86 136.903 276.129 135.264 274.311C127.446 265.645 127.99 254.09 128.478 243.215C128.98 231.085 128.715 218.76 128.747 206.615L128.325 118.313L128.238 99.2328C128.201 94.3702 127.517 84.9981 128.845 80.5122C129.217 79.2537 129.796 78.2892 130.961 77.6522ZM144.869 215.086C146.497 218.578 148.421 221.777 150.94 224.7C154.147 228.7 158.014 232.104 161.77 235.572C159.033 239.319 154.495 241.803 152.033 245.717C151.722 248.334 151.843 251.062 152.002 253.69C148.116 251.824 144.113 250.208 140.215 248.36C136.904 246.79 133.594 244.914 130.213 243.527C129.609 243.279 129.127 243.203 128.478 243.215C127.99 254.09 127.446 265.645 135.264 274.311C136.903 276.129 138.864 277.86 140.993 279.085C149.107 283.756 158.051 286.845 166.509 290.815L205.522 308.721C212.831 312.051 220.062 315.612 227.481 318.692C229.771 319.643 232.212 320.175 234.481 321.093C238.18 322.93 242.451 324.254 245.53 327.152C257.606 332.893 270.035 337.9 282.199 343.471C287.469 345.884 292.76 348.286 297.961 350.843C300.749 352.214 303.491 353.86 306.331 355.1C307.301 355.259 308.272 355.436 309.246 355.56C310.693 355.609 311.808 355.876 313.141 356.411C318.769 358.67 324.155 361.871 329.672 364.435C335.176 366.993 340.834 369.253 346.308 371.859C349.746 373.496 353.078 375.413 356.43 377.221C358.037 378.088 360.043 378.747 361.474 379.82L361.681 380.314L361.384 380.724C364.905 382.849 370.148 386.452 374.437 385.43C374.715 385.364 374.964 385.275 375.22 385.148C374.999 383.951 377.739 381.352 378.125 379.872C378.631 377.932 379.827 360.504 379.539 359.237C379.491 359.024 379.32 358.859 379.211 358.671C374.209 357.671 366.987 353.223 362.293 350.889C356.886 348.201 351.402 345.644 345.964 343.017C330.212 335.467 314.389 328.068 298.496 320.82C291.062 317.368 283.771 313.626 276.288 310.272C271.321 308.046 244.202 296.346 242.01 294.05C243.531 293.383 244.31 293.288 245.439 291.969C250.837 285.66 254.393 269.327 253.433 261.217C252.706 255.079 250.191 248.947 251.382 242.666C252.054 239.123 255.267 236.704 256.87 233.604C263.232 221.302 264.28 207.328 263.23 193.73C262.958 190.137 262.306 186.582 261.285 183.127C260.651 181.034 259.803 178.977 259.273 176.859C258.624 174.267 258.414 171.484 257.376 169.008C256.826 167.694 256.06 166.814 254.99 165.896C252.031 165.315 249.079 164.946 246.147 164.205C245.604 164.44 245.067 164.688 244.51 164.885C244.244 163.771 243.926 162.673 243.612 161.572C242.568 159.907 242.194 157.597 241.21 155.793C241.114 155.592 241.019 155.39 240.917 155.192C238.817 151.117 236.023 148.196 231.572 146.77C226.689 147.987 223.592 150.775 219.822 153.93C216.104 152.106 211.912 150.463 208.477 148.17C203.2 146.098 197.923 143.297 192.832 140.771C191.248 139.727 189.715 138.661 188.221 137.49C185.78 135.482 184.197 131.956 182.662 129.234C180.11 123.69 177.641 118.832 171.611 116.53C165.779 118.468 160.811 121.747 157.994 127.372C156.488 130.379 155.776 133.772 155.074 137.039C154.794 138.514 154.361 140.076 154.557 141.575L154.475 141.764L154.49 145.324C154.515 145.438 154.538 145.553 154.563 145.667C154.71 146.316 154.608 145.924 154.819 146.504C155.308 147.847 154.949 149.723 154.741 151.096C154.71 151.305 154.684 151.516 154.655 151.726C154.269 152.144 153.964 152.187 153.42 152.305L153.268 152.51C151.859 154.368 146.294 159.53 146.441 161.613C146.755 161.988 147.114 162.361 147.389 162.764C146.915 162.839 146.418 162.953 145.94 162.981C140.19 169.58 140.247 183.62 140.53 191.951C140.214 197.966 141.501 210.277 144.869 215.086ZM146.436 214.786C146.876 215.446 147.351 216.153 147.228 216.988C147.213 217.088 147.18 217.186 147.156 217.285L146.714 217.371C145.921 216.833 145.603 215.698 145.312 214.815L145.539 214.387L146.436 214.786Z"/><path fill="#F2F1F0" fill-opacity="0.69803923" transform="scale(2 2)" d="M142.027 190.475C142.523 192.902 142.648 195.459 142.897 197.924C142.583 199.215 142.513 204.999 143.19 205.964C143.27 206.078 143.363 206.183 143.448 206.294C143.538 206.411 143.623 206.531 143.715 206.647C143.782 206.733 143.853 206.815 143.922 206.898C143.902 210.182 144.812 211.993 146.436 214.786L145.539 214.387L145.312 214.815L144.869 215.086C141.501 210.277 140.214 197.966 140.53 191.951C140.997 192.399 140.726 192.246 141.341 192.416C141.846 191.84 141.862 191.211 142.027 190.475ZM142.1 204.754C142.324 202.342 142.459 199.297 142.014 196.926L141.529 196.806C141.442 197.007 141.311 197.241 141.264 197.454C140.644 199.908 141.426 202.405 142.1 204.754Z"/><path fill="#F2F1F0" fill-opacity="0.25098041" transform="scale(2 2)" d="M142.014 196.926C142.459 199.297 142.324 202.342 142.1 204.754C141.426 202.405 140.644 199.908 141.264 197.454C141.272 198.387 141.314 199.254 141.468 200.175L141.651 200.226C141.865 199.118 141.961 198.051 142.014 196.926Z"/><path fill="#F2F1F0" fill-opacity="0.11372549" transform="scale(2 2)" d="M141.264 197.454C141.311 197.241 141.442 197.007 141.529 196.806L142.014 196.926C141.961 198.051 141.865 199.118 141.651 200.226L141.468 200.175C141.314 199.254 141.272 198.387 141.264 197.454Z"/><path fill="#F2F1F0" fill-opacity="0.96862745" transform="scale(2 2)" d="M142.897 197.924C144.187 207.002 146.663 215.52 151.882 223.156C151.806 223.144 151.73 223.134 151.655 223.12C151.349 223.062 151.093 222.964 150.806 222.847L150.578 223.104C150.728 223.637 150.901 224.145 150.94 224.7C148.421 221.777 146.497 218.578 144.869 215.086L145.312 214.815C145.603 215.698 145.921 216.833 146.714 217.371L147.156 217.285C147.18 217.186 147.213 217.088 147.228 216.988C147.351 216.153 146.876 215.446 146.436 214.786C144.812 211.993 143.902 210.182 143.922 206.898C143.853 206.815 143.782 206.733 143.715 206.647C143.623 206.531 143.538 206.411 143.448 206.294C143.363 206.183 143.27 206.078 143.19 205.964C142.513 204.999 142.583 199.215 142.897 197.924Z"/><path fill="#F2F1F0" fill-opacity="0.74901962" transform="scale(2 2)" d="M155.074 137.039C155.422 136.722 156.294 136.113 156.526 135.737C157.281 134.515 156.748 132.189 157.554 130.781L157.906 130.839C158.223 131.633 158.049 132.496 157.979 133.328C157.259 135.467 156.865 139.313 155.804 141.061C155.886 140.086 155.999 139.178 155.786 138.212C154.994 138.728 154.756 140.652 154.557 141.575C154.361 140.076 154.794 138.514 155.074 137.039Z"/><path fill="#F2F1F0" fill-opacity="0.11764706" transform="scale(2 2)" d="M154.557 141.575C154.756 140.652 154.994 138.728 155.786 138.212C155.999 139.178 155.886 140.086 155.804 141.061C155.657 142.466 155.607 143.919 155.079 145.241L154.718 145.428L154.49 145.324L154.475 141.764L154.557 141.575Z"/><defs><linearGradient id="gradient_0" gradientUnits="userSpaceOnUse" x1="302.96732" y1="417.66217" x2="166.153" y2="119.07541"><stop offset="0" stop-color="#D6CBC1"/><stop offset="1" stop-color="#E7E6E6"/></linearGradient></defs><path fill="url(#gradient_0)" transform="scale(2 2)" d="M171.611 116.53C177.641 118.832 180.11 123.69 182.662 129.234C184.197 131.956 185.78 135.482 188.221 137.49C189.715 138.661 191.248 139.727 192.832 140.771C197.923 143.297 203.2 146.098 208.477 148.17C211.912 150.463 216.104 152.106 219.822 153.93C223.592 150.775 226.689 147.987 231.572 146.77C236.023 148.196 238.817 151.117 240.917 155.192C241.019 155.39 241.114 155.592 241.21 155.793C242.194 157.597 242.568 159.907 243.612 161.572C243.926 162.673 244.244 163.771 244.51 164.885C245.067 164.688 245.604 164.44 246.147 164.205C249.079 164.946 252.031 165.315 254.99 165.896C256.06 166.814 256.826 167.694 257.376 169.008C258.414 171.484 258.624 174.267 259.273 176.859C259.803 178.977 260.651 181.034 261.285 183.127C262.306 186.582 262.958 190.137 263.23 193.73C264.28 207.328 263.232 221.302 256.87 233.604C255.267 236.704 252.054 239.123 251.382 242.666C250.191 248.947 252.706 255.079 253.433 261.217C254.393 269.327 250.837 285.66 245.439 291.969C244.31 293.288 243.531 293.383 242.01 294.05C244.202 296.346 271.321 308.046 276.288 310.272C283.771 313.626 291.062 317.368 298.496 320.82C314.389 328.068 330.212 335.467 345.964 343.017C351.402 345.644 356.886 348.201 362.293 350.889C366.987 353.223 374.209 357.671 379.211 358.671C379.32 358.859 379.491 359.024 379.539 359.237C379.827 360.504 378.631 377.932 378.125 379.872C377.739 381.352 374.999 383.951 375.22 385.148C374.964 385.275 374.715 385.364 374.437 385.43C370.148 386.452 364.905 382.849 361.384 380.724L361.681 380.314L361.474 379.82C360.043 378.747 358.037 378.088 356.43 377.221C353.078 375.413 349.746 373.496 346.308 371.859C340.834 369.253 335.176 366.993 329.672 364.435C324.155 361.871 318.769 358.67 313.141 356.411C311.808 355.876 310.693 355.609 309.246 355.56C308.272 355.436 307.301 355.259 306.331 355.1C303.491 353.86 300.749 352.214 297.961 350.843C292.76 348.286 287.469 345.884 282.199 343.471C270.035 337.9 257.606 332.893 245.53 327.152C242.451 324.254 238.18 322.93 234.481 321.093C232.212 320.175 229.771 319.643 227.481 318.692C220.062 315.612 212.831 312.051 205.522 308.721L166.509 290.815C158.051 286.845 149.107 283.756 140.993 279.085C138.864 277.86 136.903 276.129 135.264 274.311C127.446 265.645 127.99 254.09 128.478 243.215C129.127 243.203 129.609 243.279 130.213 243.527C133.594 244.914 136.904 246.79 140.215 248.36C144.113 250.208 148.116 251.824 152.002 253.69C151.843 251.062 151.722 248.334 152.033 245.717C154.495 241.803 159.033 239.319 161.77 235.572C158.014 232.104 154.147 228.7 150.94 224.7C150.901 224.145 150.728 223.637 150.578 223.104L150.806 222.847C151.093 222.964 151.349 223.062 151.655 223.12C151.73 223.134 151.806 223.144 151.882 223.156C146.663 215.52 144.187 207.002 142.897 197.924C142.648 195.459 142.523 192.902 142.027 190.475C142.001 190.368 141.973 190.262 141.949 190.155C141.635 188.771 141.726 187.023 141.754 185.605C141.9 178.292 144.268 172.742 148.09 166.617C147.546 165.269 146.769 164.164 145.94 162.981C146.418 162.953 146.915 162.839 147.389 162.764C147.114 162.361 146.755 161.988 146.441 161.613C146.294 159.53 151.859 154.368 153.268 152.51L153.42 152.305C153.964 152.187 154.269 152.144 154.655 151.726C154.684 151.516 154.71 151.305 154.741 151.096C154.949 149.723 155.308 147.847 154.819 146.504C154.608 145.924 154.71 146.316 154.563 145.667C154.538 145.553 154.515 145.438 154.49 145.324L154.718 145.428L155.079 145.241C155.607 143.919 155.657 142.466 155.804 141.061C156.865 139.313 157.259 135.467 157.979 133.328C158.049 132.496 158.223 131.633 157.906 130.839L157.554 130.781C156.748 132.189 157.281 134.515 156.526 135.737C156.294 136.113 155.422 136.722 155.074 137.039C155.776 133.772 156.488 130.379 157.994 127.372C160.811 121.747 165.779 118.468 171.611 116.53ZM148.09 166.617C144.268 172.742 141.9 178.292 141.754 185.605C141.726 187.023 141.635 188.771 141.949 190.155C141.973 190.262 142.001 190.368 142.027 190.475C142.523 192.902 142.648 195.459 142.897 197.924C144.187 207.002 146.663 215.52 151.882 223.156C153.582 224.478 154.908 226.833 156.74 228.272C165.55 235.197 184.633 245.818 195.262 248.915C200.015 250.299 205.316 250.74 209.773 248.179C213.175 246.224 214.95 243.006 215.918 239.335C218.334 230.176 217.308 213.74 215.248 204.477C214.216 199.833 212.794 195.474 210.397 191.347C203.475 179.426 189.893 174.769 178.095 169.209C173.382 166.988 168.707 164.194 163.649 162.864C160.373 162.003 155.714 161.598 152.694 163.371C151.527 164.055 150.555 165.009 149.372 165.686C149.312 165.72 149.252 165.753 149.192 165.786C148.588 166.048 148.465 166.087 148.09 166.617ZM158.813 129.835C159.579 128.859 160.236 128.015 160.238 126.725L159.79 126.406C159.172 127.252 158.36 128.082 158.474 129.197C158.519 129.632 158.499 129.501 158.813 129.835Z"/><path fill="#423736" transform="scale(2 2)" d="M149.192 165.786C149.252 165.753 149.312 165.72 149.372 165.686C150.555 165.009 151.527 164.055 152.694 163.371C155.714 161.598 160.373 162.003 163.649 162.864C168.707 164.194 173.382 166.988 178.095 169.209C189.893 174.769 203.475 179.426 210.397 191.347C212.794 195.474 214.216 199.833 215.248 204.477C217.308 213.74 218.334 230.176 215.918 239.335C214.95 243.006 213.175 246.224 209.773 248.179C205.316 250.74 200.015 250.299 195.262 248.915C184.633 245.818 165.55 235.197 156.74 228.272C154.908 226.833 153.582 224.478 151.882 223.156C146.663 215.52 144.187 207.002 142.897 197.924C142.648 195.459 142.523 192.902 142.027 190.475C142.001 190.368 141.973 190.262 141.949 190.155C141.635 188.771 141.726 187.023 141.754 185.605C141.9 178.292 144.268 172.742 148.09 166.617C148.465 166.087 148.588 166.048 149.192 165.786ZM153.743 205.823C155.763 206.841 157.605 206.643 159.79 206.494C160.464 205.908 161.13 205.314 161.788 204.711C162.323 203.903 162.752 203.043 163.195 202.183C163.319 201.966 163.382 201.874 163.475 201.659C164.461 199.362 163.4 196.423 162.572 194.221C160.515 191.058 158.41 189.764 155.019 188.309C152.594 189.144 150.765 189.911 149.566 192.372C148.345 194.877 148.625 198.175 149.583 200.734C150.366 202.827 151.811 204.674 153.743 205.823ZM206.509 221.717C207.099 220.793 207.611 219.74 207.907 218.683C208.747 215.679 207.574 213.374 206.154 210.817C204.828 209.404 203.517 208.068 201.712 207.276C201.261 207.077 200.807 206.884 200.35 206.696C198.485 206.29 197.005 206.296 195.371 207.408C193.751 208.51 192.648 210.476 192.32 212.387C192.255 212.784 192.208 213.183 192.178 213.584C192.127 213.994 192.052 214.393 192.076 214.806C192.167 215.362 192.203 216.023 192.411 216.543C192.701 218.903 193.939 221.043 195.841 222.47C197.705 223.891 200.109 224.549 202.428 224.116C204.208 223.782 205.062 222.619 206.509 221.717Z"/><path fill="#F2F1F0" fill-opacity="0.92156863" transform="scale(2 2)" d="M155.019 188.309C158.41 189.764 160.515 191.058 162.572 194.221C163.4 196.423 164.461 199.362 163.475 201.659C163.382 201.874 163.319 201.966 163.195 202.183C162.429 202.223 162.152 202.269 161.634 202.864C160.704 203.934 160.183 205.156 159.039 206.057C157.225 206.043 155.593 205.686 153.743 205.823C151.811 204.674 150.366 202.827 149.583 200.734C148.625 198.175 148.345 194.877 149.566 192.372C150.765 189.911 152.594 189.144 155.019 188.309Z"/><path fill="#F2F1F0" fill-opacity="0.91764706" transform="scale(2 2)" d="M200.35 206.696C200.807 206.884 201.261 207.077 201.712 207.276C203.517 208.068 204.828 209.404 206.154 210.817C207.574 213.374 208.747 215.679 207.907 218.683C207.611 219.74 207.099 220.793 206.509 221.717C205.062 222.619 204.208 223.782 202.428 224.116C200.109 224.549 197.705 223.891 195.841 222.47C193.939 221.043 192.701 218.903 192.411 216.543C192.759 216.736 192.634 216.612 192.844 216.933C193.07 217.277 193.314 217.571 193.581 217.883L193.816 217.527L194.164 217.427C194.942 216.257 194.472 213.692 194.393 212.305C195.932 209.685 199.287 209.052 200.35 206.696Z"/><path fill="#E7952A" transform="scale(2 2)" d="M178.579 218.742C178.164 219.251 177.661 219.897 177.084 220.23C176.504 220.564 175.866 220.69 175.209 220.503C174.284 220.24 173.707 219.445 173.369 218.591C172.745 217.017 172.811 215.021 173.516 213.484C173.92 212.604 174.613 211.873 175.541 211.555C176.349 211.278 177.501 211.262 178.227 211.752C179.274 212.459 179.592 213.81 179.906 214.956L180.222 214.666C180.656 215.058 180.572 214.837 180.606 215.384C180.659 216.234 180.402 217.771 179.763 218.396C179.497 218.656 179.418 218.679 179.123 218.842L178.579 218.742Z"/><path fill="#080706" transform="scale(2 2)" d="M179.906 214.956L180.222 214.666C180.656 215.058 180.572 214.837 180.606 215.384C180.659 216.234 180.402 217.771 179.763 218.396C179.497 218.656 179.418 218.679 179.123 218.842L178.579 218.742C179.152 217.54 179.502 216.224 179.906 214.956Z"/><path fill="#080706" transform="scale(2 2)" d="M206.154 210.817C206.703 210.267 206.781 210.21 207.537 210.043C208.786 210.509 209.116 211.21 209.65 212.397C210.529 214.347 211.295 217.531 210.399 219.531C209.839 220.782 208.755 221.202 207.528 221.616C207.135 221.749 206.914 221.783 206.509 221.717C207.099 220.793 207.611 219.74 207.907 218.683C208.747 215.679 207.574 213.374 206.154 210.817Z"/><path fill="#F2F1F0" fill-opacity="0.81568629" transform="scale(2 2)" d="M192.178 213.584C192.208 213.183 192.255 212.784 192.32 212.387C192.648 210.476 193.751 208.51 195.371 207.408C197.005 206.296 198.485 206.29 200.35 206.696C199.287 209.052 195.932 209.685 194.393 212.305C194.472 213.692 194.942 216.257 194.164 217.427L193.816 217.527L193.581 217.883C193.314 217.571 193.07 217.277 192.844 216.933C192.634 216.612 192.759 216.736 192.411 216.543C192.203 216.023 192.167 215.362 192.076 214.806C192.359 215.365 192.507 215.688 193.051 216.018L193.516 215.89C193.768 215.389 193.823 215.024 193.815 214.472C193.8 213.589 193.69 212.94 193.037 212.323L192.617 212.458L192.178 213.584Z"/><path fill="#080706" transform="scale(2 2)" d="M162.572 194.221C163.103 193.875 163.164 193.854 163.797 193.86C164.712 194.408 164.98 195.176 165.249 196.169C165.855 198.409 166.006 200.985 165.777 203.29C164.33 204.267 163.611 204.74 161.788 204.711C162.323 203.903 162.752 203.043 163.195 202.183C163.319 201.966 163.382 201.874 163.475 201.659C164.461 199.362 163.4 196.423 162.572 194.221Z"/><path fill="#F2F1F0" fill-opacity="0.94509804" transform="scale(2 2)" d="M153.743 205.823C155.593 205.686 157.225 206.043 159.039 206.057C160.183 205.156 160.704 203.934 161.634 202.864C162.152 202.269 162.429 202.223 163.195 202.183C162.752 203.043 162.323 203.903 161.788 204.711C161.13 205.314 160.464 205.908 159.79 206.494C157.605 206.643 155.763 206.841 153.743 205.823Z"/><path fill="#F2F1F0" fill-opacity="0.50196081" transform="scale(2 2)" d="M192.178 213.584L192.617 212.458L193.037 212.323C193.69 212.94 193.8 213.589 193.815 214.472C193.823 215.024 193.768 215.389 193.516 215.89L193.051 216.018C192.507 215.688 192.359 215.365 192.076 214.806C192.052 214.393 192.127 213.994 192.178 213.584Z"/><path fill="#080706" transform="scale(2 2)" d="M246.147 164.205C249.079 164.946 252.031 165.315 254.99 165.896C256.06 166.814 256.826 167.694 257.376 169.008C258.414 171.484 258.624 174.267 259.273 176.859C259.803 178.977 260.651 181.034 261.285 183.127C262.306 186.582 262.958 190.137 263.23 193.73C264.28 207.328 263.232 221.302 256.87 233.604C255.267 236.704 252.054 239.123 251.382 242.666C250.191 248.947 252.706 255.079 253.433 261.217C254.393 269.327 250.837 285.66 245.439 291.969C244.31 293.288 243.531 293.383 242.01 294.05L241.668 293.976C241.419 293.581 241.422 293.514 241.408 293.069C242.035 292.125 242.943 290.599 243.097 289.462C243.418 287.088 242.677 284.088 242.589 281.635C242.414 276.736 243.061 271.656 242.115 266.818C240.797 260.07 236.766 256.138 231.231 252.401C236.082 250.486 240.076 247.817 243.968 244.366C247.412 241.46 250.06 237.761 252.248 233.855C253.973 231.021 254.797 227.205 255.241 223.958C255.894 219.175 255.749 214.282 255.754 209.464C255.762 201.618 255.9 193.938 254.621 186.161C252.567 177.163 247.909 172.953 244.51 164.885C245.067 164.688 245.604 164.44 246.147 164.205Z"/><defs><linearGradient id="gradient_1" gradientUnits="userSpaceOnUse" x1="255.29044" y1="198.51468" x2="239.45842" y2="200.2151"><stop offset="0" stop-color="#A79991"/><stop offset="1" stop-color="#C7BEB5"/></linearGradient></defs><path fill="url(#gradient_1)" transform="scale(2 2)" d="M241.21 155.793C242.194 157.597 242.568 159.907 243.612 161.572C243.926 162.673 244.244 163.771 244.51 164.885C247.909 172.953 252.567 177.163 254.621 186.161C255.9 193.938 255.762 201.618 255.754 209.464C255.749 214.282 255.894 219.175 255.241 223.958C254.797 227.205 253.973 231.021 252.248 233.855C250.06 237.761 247.412 241.46 243.968 244.366C243.095 241.763 244.146 237.909 244.445 235.173C245.235 227.938 244.499 220.599 244.237 213.36C243.958 205.649 244.049 197.79 242.884 190.152C242.448 187.292 241.074 185.845 238.822 184.182C238.078 178.684 236.315 172.266 236.336 166.838C236.35 163.09 237.47 159.628 240.184 156.978C240.504 156.665 240.779 156.408 241.046 156.043C241.105 155.963 241.155 155.877 241.21 155.793Z"/><path fill="#A48D84" transform="scale(2 2)" d="M254.621 186.161C255.9 193.938 255.762 201.618 255.754 209.464C255.749 214.282 255.894 219.175 255.241 223.958C254.797 227.205 253.973 231.021 252.248 233.855C251.916 233.57 251.599 233.276 251.283 232.973C251.057 229.148 251.743 224.973 251.887 221.116C252.134 214.51 251.916 207.861 252.229 201.274C252.408 197.511 253.021 193.758 253.233 189.985C253.322 188.412 253.852 187.502 254.621 186.161Z"/><path fill="#F9BA67" transform="scale(2 2)" d="M157.979 133.328C158.966 130.902 160.307 127.217 162.988 126.214C163.923 125.865 164.876 125.982 165.761 126.416C167.148 127.096 168.278 128.397 169.27 129.556C173.463 134.459 175.564 140.069 177.469 146.145C171.2 145.966 165.239 146.161 159.518 149.054C157.993 149.826 156.323 151.438 154.655 151.726C154.684 151.516 154.71 151.305 154.741 151.096C154.949 149.723 155.308 147.847 154.819 146.504C154.608 145.924 154.71 146.316 154.563 145.667C154.538 145.553 154.515 145.438 154.49 145.324L154.718 145.428L155.079 145.241C155.607 143.919 155.657 142.466 155.804 141.061C156.865 139.313 157.259 135.467 157.979 133.328Z"/><path fill="#B29F96" transform="scale(2 2)" d="M209.636 256.657C215.896 257.611 225.424 255.026 231.231 252.401C236.766 256.138 240.797 260.07 242.115 266.818C243.061 271.656 242.414 276.736 242.589 281.635C242.677 284.088 243.418 287.088 243.097 289.462C242.943 290.599 242.035 292.125 241.408 293.069C241.422 293.514 241.419 293.581 241.668 293.976C240.547 294.379 239.338 295.207 238.284 295.788C239.574 287.726 239.511 277.666 236.505 270.015C235.719 268.013 234.69 266.099 232.927 264.79C228.916 261.81 215.591 259.796 209.757 257.217C209.659 257.174 209.563 257.128 209.465 257.084L209.636 256.657Z"/><path fill="#D2CAC5" transform="scale(2 2)" d="M182.662 129.234C184.197 131.956 185.78 135.482 188.221 137.49C189.715 138.661 191.248 139.727 192.832 140.771C192.78 140.887 192.722 141 192.675 141.118C192.503 141.543 192.405 141.968 192.065 142.297C190.586 143.727 187.949 143.39 186.077 143.313L185.777 142.971C185.268 142.399 184.848 141.859 184.5 141.171C182.87 137.948 181.497 132.762 182.662 129.234Z"/><path fill="#564A4A" transform="scale(2 2)" d="M147.389 162.764L147.619 163.583L147.847 163.626C148.195 163.211 148.405 162.735 148.956 162.671L149.308 163.256C149.042 163.844 148.606 164.364 148.843 164.983C149.045 165.509 148.956 165.3 149.192 165.786C148.588 166.048 148.465 166.087 148.09 166.617C147.546 165.269 146.769 164.164 145.94 162.981C146.418 162.953 146.915 162.839 147.389 162.764Z"/><path fill="#D2CAC5" transform="scale(2 2)" d="M209.465 257.084C208.393 256.778 206.999 256.517 206.031 255.989L206.334 255.686C207.451 255.971 208.542 256.294 209.636 256.657L209.465 257.084Z"/><path fill="#F9BA67" transform="scale(2 2)" d="M223.959 155.236C225.081 155.438 226.122 155.72 227.048 156.417C232.613 160.603 234.337 175.904 235.164 182.732C233.317 180.912 231.188 179.396 229.127 177.83C226.239 175.019 217.998 170.39 214.01 168.991C217.368 164.126 218.372 158.357 223.959 155.236Z"/><path fill="#423736" transform="scale(2 2)" d="M173.15 256.262C174.209 256.205 175.176 256.204 176.022 256.939C176.558 257.405 176.838 258.07 176.882 258.77C176.996 260.587 176.025 261.967 174.872 263.246C174.52 263.273 174.157 263.289 173.807 263.231C172.992 263.095 172.208 262.558 171.725 261.893C171.067 260.989 170.97 259.811 171.173 258.736C171.42 257.431 172.127 257.012 173.15 256.262Z"/><path fill="#423736" transform="scale(2 2)" d="M183.432 267.394C182.589 266.816 182.098 265.945 181.703 265.013C181.416 264.335 181.397 263.626 181.75 262.966C182.096 262.318 182.713 261.873 183.4 261.644C184.297 261.345 185.343 261.456 186.141 261.978C187.432 262.822 187.527 264.163 187.774 265.547C187.36 266.564 186.949 267.702 185.917 268.238C185.522 268.443 185.188 268.361 184.759 268.35C184.241 268.068 183.858 267.802 183.432 267.394Z"/><path fill="#080706" transform="scale(2 2)" d="M183.432 267.394C183.591 267.113 183.735 266.848 183.967 266.617C184.834 265.754 186.122 264.977 187.363 264.956L187.774 265.547C187.36 266.564 186.949 267.702 185.917 268.238C185.522 268.443 185.188 268.361 184.759 268.35C184.241 268.068 183.858 267.802 183.432 267.394Z"/><path fill="#564A4A" transform="scale(2 2)" d="M163.135 257.85C162.338 256.925 161.779 256.069 161.693 254.818C161.624 253.819 161.81 252.603 162.602 251.901C163.328 251.258 164.389 250.962 165.336 250.986C166.462 252.109 167.144 252.98 167.189 254.626C167.215 255.598 166.995 256.5 166.289 257.204C165.669 257.822 165.003 258.015 164.15 257.992C163.803 257.983 163.473 257.924 163.135 257.85Z"/><path fill="#080706" transform="scale(2 2)" d="M165.336 250.986C166.462 252.109 167.144 252.98 167.189 254.626C167.215 255.598 166.995 256.5 166.289 257.204C165.669 257.822 165.003 258.015 164.15 257.992C163.803 257.983 163.473 257.924 163.135 257.85C163.686 257.197 164.321 256.61 164.93 256.01C165.229 254.434 164.973 252.937 164.769 251.365L165.336 250.986Z"/><path fill="#D2CAC5" transform="scale(2 2)" d="M172.301 126.15C174.167 127.24 175.959 132.741 176.653 134.826C174.621 133.582 172.834 128.355 172.301 126.15Z"/><path fill="#D2CAC5" transform="scale(2 2)" d="M180.03 144.296C181.186 144.291 183.006 144.056 184.041 144.513L184.103 144.963C183.017 145.285 181.872 145.666 180.741 145.452C180.192 145.014 180.196 144.983 180.03 144.296Z"/><path fill="#F2F1F0" fill-opacity="0.63137257" transform="scale(2 2)" d="M159.79 126.406L160.238 126.725C160.236 128.015 159.579 128.859 158.813 129.835C158.499 129.501 158.519 129.632 158.474 129.197C158.36 128.082 159.172 127.252 159.79 126.406Z"/><path fill="#D2CAC5" transform="scale(2 2)" d="M199.511 254.5C201.268 254.418 203.083 255.105 204.706 255.724C202.86 255.759 201.223 255.107 199.511 254.5Z"/><path fill="#080706" transform="scale(2 2)" d="M188.221 137.49C188.312 137.437 188.403 137.385 188.494 137.331C192.383 135.015 191.494 132.317 192.997 131.074C193.162 131.363 193.245 131.562 193.281 131.895C193.546 134.364 196.974 139.182 198.867 140.752C201.051 142.564 207.448 145.573 208.481 147.598L208.477 148.17C203.2 146.098 197.923 143.297 192.832 140.771C191.248 139.727 189.715 138.661 188.221 137.49Z"/><path fill="#F2F1F0" transform="scale(2 2)" d="M153.42 152.305C153.638 148.836 153.673 145.154 154.475 141.764L154.49 145.324C154.515 145.438 154.538 145.553 154.563 145.667C154.71 146.316 154.608 145.924 154.819 146.504C155.308 147.847 154.949 149.723 154.741 151.096C154.71 151.305 154.684 151.516 154.655 151.726C154.269 152.144 153.964 152.187 153.42 152.305Z"/><path fill="#080706" transform="scale(2 2)" d="M243.612 161.572C244.838 161.821 245.478 163.206 246.147 164.205C245.604 164.44 245.067 164.688 244.51 164.885C244.244 163.771 243.926 162.673 243.612 161.572Z"/><path fill="#D2CAC5" transform="scale(2 2)" d="M279.382 233.653C281.536 233.087 283.169 233.334 285.247 234.059C292.131 236.459 298.717 240.071 305.251 243.266C308.259 244.736 311.408 245.964 314.466 247.33C317.721 248.782 320.906 250.387 324.158 251.847L350.498 263.833C353.922 265.382 357.639 266.383 360.879 268.293C363.425 269.794 365.678 272.431 366.386 275.341C366.663 276.477 366.607 277.742 366 278.767C365.506 279.601 365.021 279.824 364.147 280.126C363.998 280.178 363.852 280.242 363.705 280.3C363.427 280.506 363.419 280.527 363.163 280.676C361.939 281.392 360.828 281.361 359.485 280.993C357.39 280.419 355.326 279.381 353.339 278.505C347.513 275.937 341.911 272.937 336.136 270.263L307.29 256.854C299.572 253.314 291.657 249.923 284.198 245.86C282.146 244.742 278.691 243.086 277.527 240.99C276.767 239.62 276.594 238 277.048 236.5C277.455 235.178 278.147 234.266 279.382 233.653Z"/><defs><linearGradient id="gradient_2" gradientUnits="userSpaceOnUse" x1="326.21317" y1="246.4635" x2="320.2757" y2="266.62045"><stop offset="0" stop-color="#5E6A6A"/><stop offset="1" stop-color="#86998A"/></linearGradient></defs><path fill="url(#gradient_2)" transform="scale(2 2)" d="M279.382 233.653C281.536 233.087 283.169 233.334 285.247 234.059C292.131 236.459 298.717 240.071 305.251 243.266C308.259 244.736 311.408 245.964 314.466 247.33C317.721 248.782 320.906 250.387 324.158 251.847L350.498 263.833C353.922 265.382 357.639 266.383 360.879 268.293C363.425 269.794 365.678 272.431 366.386 275.341C366.663 276.477 366.607 277.742 366 278.767C365.506 279.601 365.021 279.824 364.147 280.126C363.998 280.178 363.852 280.242 363.705 280.3C363.411 278.312 363.626 276.049 363.559 274.021C362.455 272.322 360.639 270.659 358.893 269.631C354.589 267.097 349.374 265.908 344.839 263.788C340.439 261.732 336.306 259.099 331.853 257.157L297.815 242.176C291.601 239.396 285.355 236.955 279.382 233.653Z"/><path fill="#F9BA67" transform="scale(2 2)" d="M292.544 262.701C293.742 262.193 294.732 262.095 296.015 262.26C305.911 266.199 315.517 271.267 325.231 275.667C331.033 278.295 336.907 280.745 342.672 283.46C345.095 284.602 347.719 285.727 349.972 287.176C351.167 287.944 352.139 289.001 352.723 290.309C353.438 291.912 353.464 293.857 353.358 295.586C352.45 296.206 351.602 296.8 350.582 297.227C349.927 297.75 349.207 298.195 348.508 298.658C344.395 297.268 340.426 295.359 336.48 293.556C330.227 290.697 323.998 287.785 317.794 284.82C310.283 281.279 302.462 278.171 295.097 274.362C293.899 273.743 292.384 272.997 291.444 272.021C290.391 270.929 290.005 269.229 290.079 267.754C290.189 265.576 290.945 264.125 292.544 262.701Z"/><path fill="#E7952A" transform="scale(2 2)" d="M292.544 262.701C293.742 262.193 294.732 262.095 296.015 262.26C305.911 266.199 315.517 271.267 325.231 275.667C331.033 278.295 336.907 280.745 342.672 283.46C345.095 284.602 347.719 285.727 349.972 287.176C351.167 287.944 352.139 289.001 352.723 290.309C353.438 291.912 353.464 293.857 353.358 295.586C352.45 296.206 351.602 296.8 350.582 297.227C350.33 295.192 350.994 293.068 350.322 291.067C349.884 289.759 348.333 288.963 347.198 288.305C342.166 285.389 336.572 283.308 331.268 280.934L308.973 270.736C304.842 268.861 300.63 267.206 296.559 265.199C294.781 264.7 293.732 264.137 292.544 262.701Z"/><path fill="#F09C8E" transform="scale(2 2)" d="M274.443 207.43C274.682 206.32 275.037 204.994 276.101 204.397C277.04 203.869 278.346 204.075 279.307 204.441C282.172 205.534 286.693 210.055 289.034 210.364L289.232 210.79C288.579 211.064 288.004 211.142 287.31 211.218C287.068 211.542 286.837 211.914 286.53 212.179C292.648 215.336 298.846 218.336 305.117 221.178C310.795 223.72 318.31 226.173 323.281 229.795C325.165 231.168 326.741 233.001 327.468 235.253C327.624 235.736 327.739 236.232 327.852 236.727C327.98 237.731 328.338 239.109 327.606 239.947C326.954 240.694 325.628 240.839 324.711 241.006C322.797 241.134 320.899 240.633 319.111 239.981C314.133 238.167 309.196 235.269 304.423 232.947C297.023 229.346 289.559 225.989 282.066 222.591C278.869 221.141 273.025 218.705 271.808 215.134C271.066 212.958 271.515 210.675 272.474 208.661C273.123 208.096 273.646 207.759 274.443 207.43Z"/><path fill="#D56E62" transform="scale(2 2)" d="M274.443 207.43C274.682 206.32 275.037 204.994 276.101 204.397C277.04 203.869 278.346 204.075 279.307 204.441C282.172 205.534 286.693 210.055 289.034 210.364L289.232 210.79C288.579 211.064 288.004 211.142 287.31 211.218C287.068 211.542 286.837 211.914 286.53 212.179C292.648 215.336 298.846 218.336 305.117 221.178C310.795 223.72 318.31 226.173 323.281 229.795C325.165 231.168 326.741 233.001 327.468 235.253C327.624 235.736 327.739 236.232 327.852 236.727C327.98 237.731 328.338 239.109 327.606 239.947C326.954 240.694 325.628 240.839 324.711 241.006L324.942 239.024C324.514 236.329 324.055 234.403 322.662 232.042C316.081 228.222 308.848 225.165 301.941 221.96C292.196 217.359 282.372 212.926 272.474 208.661C273.123 208.096 273.646 207.759 274.443 207.43Z"/><path fill="#080706" transform="scale(2 2)" d="M274.443 207.43C274.682 206.32 275.037 204.994 276.101 204.397C277.04 203.869 278.346 204.075 279.307 204.441C282.172 205.534 286.693 210.055 289.034 210.364L289.232 210.79C288.579 211.064 288.004 211.142 287.31 211.218C287.068 211.542 286.837 211.914 286.53 212.179C282.562 210.444 278.53 208.86 274.443 207.43Z"/><path fill="#B74D40" transform="scale(2 2)" d="M327.852 236.727C327.98 237.731 328.338 239.109 327.606 239.947C326.954 240.694 325.628 240.839 324.711 241.006L324.942 239.024C325.711 238.885 326.482 238.755 327.254 238.634C327.852 237.999 327.758 237.577 327.852 236.727Z"/><path fill="#9DD3C0" transform="scale(2 2)" d="M305.495 205.633C306.003 204.774 306.547 203.805 307.337 203.169C307.851 202.757 308.174 202.658 308.816 202.69C314.198 203.647 322.465 208.519 327.756 210.936C335.004 214.247 342.429 217.034 349.412 220.922C351.38 222.018 353.99 223.439 355.326 225.285C356.205 226.5 356.611 227.939 356.315 229.422C356.112 230.44 355.535 231.272 354.644 231.813C354.407 231.957 354.237 232.033 353.976 232.164C353.289 232.581 352.73 232.923 351.896 232.944C347.969 233.045 309.982 215.293 307.233 212.393C305.348 210.404 305.394 208.182 305.495 205.633Z"/><path fill="#45A281" transform="scale(2 2)" d="M308.816 202.69C314.198 203.647 322.465 208.519 327.756 210.936C335.004 214.247 342.429 217.034 349.412 220.922C351.38 222.018 353.99 223.439 355.326 225.285C356.205 226.5 356.611 227.939 356.315 229.422C356.112 230.44 355.535 231.272 354.644 231.813C354.407 231.957 354.237 232.033 353.976 232.164C353.3 229.988 354.321 227.46 352.95 225.459C350.97 222.57 327.441 212.533 322.851 210.547C318.843 208.813 313.684 207.257 310.194 204.593C309.548 204.101 309.187 203.395 308.816 202.69Z"/><path fill="#F9BA67" transform="scale(2 2)" d="M339.329 239.937L342.715 239.521C343.489 239.935 344.305 240.32 345.05 240.783C346.843 240.798 348.874 241.633 350.14 242.909C351.118 243.895 351.7 245.153 351.693 246.551C351.687 247.926 351.213 248.841 350.289 249.818C349.654 250.515 349.021 250.983 348.235 251.498C347.366 252.098 346.417 252.668 345.344 252.765C343.623 252.921 341.904 252.169 340.628 251.055C338.81 249.472 337.712 247.219 337.586 244.812C337.504 242.927 338.067 241.33 339.329 239.937Z"/><path fill="#3B1E07" transform="scale(2 2)" d="M345.05 240.783C346.843 240.798 348.874 241.633 350.14 242.909C351.118 243.895 351.7 245.153 351.693 246.551C351.687 247.926 351.213 248.841 350.289 249.818C350.003 248.345 349.779 246.858 349.156 245.482C347.999 243.637 346.696 242.201 345.05 240.783Z"/><path fill="#E7952A" transform="scale(2 2)" d="M339.329 239.937L342.715 239.521C343.489 239.935 344.305 240.32 345.05 240.783C346.696 242.201 347.999 243.637 349.156 245.482C348.784 245.924 348.459 246.325 348.004 246.689C345.879 244.58 344.582 242.271 341.673 240.983L339.329 239.937Z"/><path fill="#E7952A" transform="scale(2 2)" d="M349.156 245.482C349.779 246.858 350.003 248.345 350.289 249.818C349.654 250.515 349.021 250.983 348.235 251.498C347.873 250.118 348.079 248.159 348.004 246.689C348.459 246.325 348.784 245.924 349.156 245.482Z"/><path fill="#9DD3C0" transform="scale(2 2)" d="M288.489 292.669C290.753 293.609 292.732 294.782 293.702 297.18C294.447 299.023 294.246 300.909 293.411 302.675C293.263 302.988 293.098 303.283 292.927 303.584C291.941 304.517 290.987 305.133 289.578 305.073C288.044 305.007 286.683 304.18 285.69 303.042C284.544 301.727 283.861 299.948 283.989 298.194C284.106 296.572 284.942 295.151 286.178 294.132C286.94 293.628 287.694 293.118 288.489 292.669Z"/><path fill="#69C4C1" transform="scale(2 2)" d="M288.489 292.669C290.753 293.609 292.732 294.782 293.702 297.18C294.447 299.023 294.246 300.909 293.411 302.675C293.263 302.988 293.098 303.283 292.927 303.584C291.692 302.149 292.192 299.377 292.002 297.482L291.911 297.359C291.152 296.317 290.351 295.649 289.335 294.887C288.181 294.793 287.166 294.806 286.178 294.132C286.94 293.628 287.694 293.118 288.489 292.669Z"/><path fill="#F2F1F0" transform="scale(2 2)" d="M386.831 276.187C390.365 276.217 394.038 277.058 397.371 278.207C410.539 282.751 442.595 300.672 452.18 310.417C455.603 313.898 458.327 317.646 460.808 321.844C464.638 328.321 467.383 335.27 470.451 342.119C474.976 352.223 480.299 362.356 482.624 373.253C483.236 376.12 483.075 379.228 483.043 382.14C482.924 393.06 479.819 405.702 471.793 413.617C465.453 419.87 453.697 426.237 444.968 428.197C438.466 429.658 425.309 430.03 418.384 429.936C409.252 429.811 392.354 427.633 383.95 429.62C379.4 430.696 375.239 434.137 371.086 436.22C362.81 440.37 351.081 445.805 341.976 447.26C338.312 447.846 334.605 447.779 330.908 447.758C327.288 447.737 323.758 447.709 320.237 446.743C316.852 445.814 314.087 444.092 310.964 442.628C309.913 442.872 309.176 443.027 308.109 442.81C306.512 442.331 302.933 442.98 301.078 442.983C298.91 442.996 296.747 442.757 294.635 442.271C289.063 441.017 283.291 437.902 280.221 432.935C273.026 421.292 288.914 412.06 290.922 403.055C290.945 402.948 290.967 402.841 290.99 402.733C290.019 401.032 289.016 399.889 287.468 398.72C284.245 398.525 280.988 399.061 277.759 398.839C276.823 398.774 276.631 398.679 275.839 399.265C275.249 400.428 274.379 401.187 273.301 401.905C267.481 405.783 260.783 408.639 254.631 411.974C250.519 414.203 244.286 418.402 240.077 419.793C239.694 419.919 239.305 420.026 238.911 420.113C238.676 420.226 238.592 420.277 238.31 420.352C233.624 421.597 230.748 419.554 226.805 417.524C222.953 415.208 218.916 413.609 214.759 411.943C212.664 411.214 210.626 410.094 208.6 409.177C203.171 406.306 197.699 403.417 192.113 400.861C187.655 398.821 183.085 397.045 178.642 394.965C173.57 392.592 168.39 389.215 162.983 387.8C162.486 388.114 162.027 388.53 161.432 388.579C157.768 388.882 148.63 383.858 145.602 381.863C144.033 380.83 142.667 379.634 141.295 378.356C136.494 374.314 122.268 367.876 116.042 365.41C114.701 364.863 113.192 364.405 112.126 363.398C112.119 362.795 112.168 362.629 112.525 362.112C114.552 359.18 141.303 341.031 145.808 338.538C147.337 337.693 148.947 336.989 150.691 336.742C152.769 336.448 154.893 336.891 156.871 337.524C163.21 339.553 169.249 343.222 175.301 345.98C178.195 347.299 184.171 349.263 186.333 350.848C187.419 351.278 188.297 351.597 189.479 351.658C189.011 350.968 188.561 350.536 188.631 349.642C188.76 347.988 190.817 346.387 192.068 345.475C195.555 342.929 199.551 341.061 203.333 338.991L218.313 330.687C223.838 327.669 229.401 324.841 234.481 321.093C238.18 322.93 242.451 324.254 245.53 327.152C257.606 332.893 270.035 337.9 282.199 343.471C287.469 345.884 292.76 348.286 297.961 350.843C300.749 352.214 303.491 353.86 306.331 355.1C307.301 355.259 308.272 355.436 309.246 355.56C310.693 355.609 311.808 355.876 313.141 356.411C318.769 358.67 324.155 361.871 329.672 364.435C335.176 366.993 340.834 369.253 346.308 371.859C349.746 373.496 353.078 375.413 356.43 377.221C358.037 378.088 360.043 378.747 361.474 379.82L361.681 380.314L361.384 380.724C364.905 382.849 370.148 386.452 374.437 385.43C374.715 385.364 374.964 385.275 375.22 385.148C376.369 384.849 377.526 384.56 378.623 384.097C381.295 382.969 383.196 381.086 384.058 378.284C385.653 373.097 384.434 365.748 384.469 360.245C384.659 341.104 384.676 321.962 384.52 302.821C384.52 296.189 384.42 289.536 384.597 282.906C384.642 281.204 384.437 279.327 384.628 277.655C384.668 277.299 384.778 277.045 384.914 276.718C385.6 276.159 385.964 276.249 386.831 276.187ZM275.32 395.599C274.532 394.099 273.47 393.179 272.002 392.341C267.983 390.047 263.535 388.31 259.297 386.465C255.931 384.999 252.618 383.402 249.294 381.843L208.616 362.31C203.025 359.685 190.154 354.939 186.333 350.848C184.171 349.263 178.195 347.299 175.301 345.98C169.249 343.222 163.21 339.553 156.871 337.524C154.893 336.891 152.769 336.448 150.691 336.742C148.947 336.989 147.337 337.693 145.808 338.538C141.303 341.031 114.552 359.18 112.525 362.112C112.168 362.629 112.119 362.795 112.126 363.398C113.192 364.405 114.701 364.863 116.042 365.41C122.268 367.876 136.494 374.314 141.295 378.356C142.667 379.634 144.033 380.83 145.602 381.863C148.63 383.858 157.768 388.882 161.432 388.579C162.027 388.53 162.486 388.114 162.983 387.8C168.39 389.215 173.57 392.592 178.642 394.965C183.085 397.045 187.655 398.821 192.113 400.861C197.699 403.417 203.171 406.306 208.6 409.177C210.626 410.094 212.664 411.214 214.759 411.943C218.916 413.609 222.953 415.208 226.805 417.524C230.748 419.554 233.624 421.597 238.31 420.352C238.592 420.277 238.676 420.226 238.911 420.113C239.305 420.026 239.694 419.919 240.077 419.793C244.286 418.402 250.519 414.203 254.631 411.974C260.783 408.639 267.481 405.783 273.301 401.905C274.379 401.187 275.249 400.428 275.839 399.265L275.556 398.532C275.78 398.22 275.907 397.985 275.971 397.593C276.104 396.779 275.801 396.221 275.32 395.599Z"/><path fill="#D2CAC5" fill-opacity="0.98823529" transform="scale(2 2)" d="M275.32 395.599C275.801 396.221 276.104 396.779 275.971 397.593C275.907 397.985 275.78 398.22 275.556 398.532C275.086 398.234 274.729 398.141 274.199 397.978L273.517 397.493C274.011 396.614 274.389 396.031 275.32 395.599Z"/><path fill="#F2F1F0" transform="scale(2 2)" d="M116.042 365.41C114.701 364.863 113.192 364.405 112.126 363.398C112.119 362.795 112.168 362.629 112.525 362.112C114.552 359.18 141.303 341.031 145.808 338.538C147.337 337.693 148.947 336.989 150.691 336.742C152.769 336.448 154.893 336.891 156.871 337.524C163.21 339.553 169.249 343.222 175.301 345.98C178.195 347.299 184.171 349.263 186.333 350.848C190.154 354.939 203.025 359.685 208.616 362.31L249.294 381.843C252.618 383.402 255.931 384.999 259.297 386.465C263.535 388.31 267.983 390.047 272.002 392.341C273.47 393.179 274.532 394.099 275.32 395.599C274.389 396.031 274.011 396.614 273.517 397.493L274.199 397.978C274.729 398.141 275.086 398.234 275.556 398.532L275.839 399.265C275.249 400.428 274.379 401.187 273.301 401.905C267.481 405.783 260.783 408.639 254.631 411.974C250.519 414.203 244.286 418.402 240.077 419.793C239.694 419.919 239.305 420.026 238.911 420.113C238.676 420.226 238.592 420.277 238.31 420.352C233.624 421.597 230.748 419.554 226.805 417.524C222.953 415.208 218.916 413.609 214.759 411.943C212.664 411.214 210.626 410.094 208.6 409.177C203.171 406.306 197.699 403.417 192.113 400.861C187.655 398.821 183.085 397.045 178.642 394.965C173.57 392.592 168.39 389.215 162.983 387.8C162.486 388.114 162.027 388.53 161.432 388.579C157.768 388.882 148.63 383.858 145.602 381.863C144.033 380.83 142.667 379.634 141.295 378.356C136.494 374.314 122.268 367.876 116.042 365.41ZM251.612 404.247L253.13 404.262C253.634 404.647 254.151 405.286 254.832 405.145C254.982 405.114 255.216 404.996 255.36 404.928C253.682 402.774 249.354 401.495 246.84 400.469C248.339 398.555 250.551 397.355 252.12 395.462L251.747 395.592C249.819 396.276 247.187 397.416 246.342 399.418C246.007 400.201 245.992 401.085 246.299 401.88C246.473 402.328 246.544 402.616 246.587 403.088C246.229 403.606 245.944 403.9 245.422 404.254L245.112 404.579C244.282 405.437 242.85 406.175 242.484 407.299C243.054 408.336 245.267 409.273 246.289 410.006L247.432 409.312C249.546 408.182 251.624 406.987 253.665 405.73C253.148 405.658 252.556 405.635 252.1 405.366C251.801 405.189 251.716 404.574 251.612 404.247ZM220.8 409.179C222.242 408.589 224.299 409.237 225.376 408.632L225.481 407.934C224.741 407.72 223.966 407.53 223.246 407.257C222.602 407.013 222.273 406.921 222.002 406.277L222.46 405.544L222.105 405.137L221.943 405.267C219.544 407.168 216.94 408.176 215.119 410.782L214.759 411.943C218.916 413.609 222.953 415.208 226.805 417.524L226.96 416.73C227.316 416.88 227.538 416.943 227.923 416.864C230.452 416.344 232.678 417.849 234.996 416.401C235.723 416.048 236.344 415.899 236.788 415.212L237.147 414.765C237.346 414.879 237.427 414.963 237.655 414.972C238.95 415.027 241.61 412.976 242.61 412.175C243.127 411.926 243.544 411.509 243.982 411.141C241.883 410.655 236.503 407.453 234.935 407.711C234.408 407.781 234.118 407.862 233.605 407.689C232.085 408.364 230.095 410.498 228.449 410.015C227.634 410.631 226.871 410.946 225.915 411.295C225.131 411.921 224.47 412.605 223.419 412.644C222.733 412.432 222.158 412.185 221.519 411.857C221.789 411.507 222.055 411.155 222.316 410.799C222.148 410.469 222.027 410.319 221.741 410.071C221.247 409.644 221.547 409.937 221.063 409.45C220.974 409.361 220.888 409.269 220.8 409.179ZM156.681 343.234C158.646 343.482 160.483 344.83 162.289 344.859C162.267 344.763 162.256 344.664 162.222 344.571C161.999 343.971 161.553 343.8 161.021 343.5C159.796 342.811 158.267 342.244 156.869 342.644L156.681 343.234Z"/><path fill="#D2CAC5" fill-opacity="0.97647059" transform="scale(2 2)" d="M245.422 404.254C245.944 403.9 246.229 403.606 246.587 403.088C246.544 402.616 246.473 402.328 246.299 401.88C245.992 401.085 246.007 400.201 246.342 399.418C247.187 397.416 249.819 396.276 251.747 395.592L252.12 395.462C250.551 397.355 248.339 398.555 246.84 400.469C249.354 401.495 253.682 402.774 255.36 404.928C255.216 404.996 254.982 405.114 254.832 405.145C254.151 405.286 253.634 404.647 253.13 404.262C252.416 403.715 251.556 403.186 250.739 402.805C249.989 402.454 249.151 402.188 248.352 402.541C247.952 402.719 247.995 402.901 247.855 403.278C248.054 403.678 248.091 403.886 248.479 404.148C249.452 404.807 250.183 404.568 251.263 404.328L251.612 404.247C251.716 404.574 251.801 405.189 252.1 405.366C252.556 405.635 253.148 405.658 253.665 405.73C251.624 406.987 249.546 408.182 247.432 409.312C246.586 409.169 246.292 409.231 245.683 408.599C246.201 407.873 247.255 408.394 247.992 407.725L247.933 407.479C247.252 407.378 246.622 407.258 245.96 407.073L245.77 406.623C245.914 406.067 246.098 405.525 246.008 404.945C245.949 404.558 245.706 404.484 245.422 404.254Z"/><path fill="#F2F1F0" fill-opacity="0.89803922" transform="scale(2 2)" d="M245.422 404.254C245.706 404.484 245.949 404.558 246.008 404.945C246.098 405.525 245.914 406.067 245.77 406.623L245.96 407.073C246.622 407.258 247.252 407.378 247.933 407.479L247.992 407.725C247.255 408.394 246.201 407.873 245.683 408.599C246.292 409.231 246.586 409.169 247.432 409.312L246.289 410.006C245.267 409.273 243.054 408.336 242.484 407.299C242.85 406.175 244.282 405.437 245.112 404.579L245.422 404.254Z"/><path fill="#F2F1F0" fill-opacity="0.98823529" transform="scale(2 2)" d="M251.612 404.247L251.263 404.328C250.183 404.568 249.452 404.807 248.479 404.148C248.091 403.886 248.054 403.678 247.855 403.278C247.995 402.901 247.952 402.719 248.352 402.541C249.151 402.188 249.989 402.454 250.739 402.805C251.556 403.186 252.416 403.715 253.13 404.262L251.612 404.247Z"/><path fill="#D2CAC5" fill-opacity="0.98823529" transform="scale(2 2)" d="M221.519 411.857C221.006 411.987 220.406 412.093 219.88 411.974C219.283 411.84 218.991 411.384 218.692 410.902L218.876 410.436C219.442 410.146 219.995 409.87 220.482 409.456C220.589 409.365 220.694 409.272 220.8 409.179C220.888 409.269 220.974 409.361 221.063 409.45C221.547 409.937 221.247 409.644 221.741 410.071C222.027 410.319 222.148 410.469 222.316 410.799C222.055 411.155 221.789 411.507 221.519 411.857Z"/><path fill="#F2F1F0" fill-opacity="0.043137256" transform="scale(2 2)" d="M156.681 343.234L156.869 342.644C158.267 342.244 159.796 342.811 161.021 343.5C161.553 343.8 161.999 343.971 162.222 344.571C162.256 344.664 162.267 344.763 162.289 344.859C160.483 344.83 158.646 343.482 156.681 343.234Z"/><defs><linearGradient id="gradient_3" gradientUnits="userSpaceOnUse" x1="210.81668" y1="352.60477" x2="176.28867" y2="405.1152"><stop offset="0" stop-color="#AE845D"/><stop offset="1" stop-color="#EAAC7C"/></linearGradient></defs><path fill="url(#gradient_3)" transform="scale(2 2)" d="M116.042 365.41C114.701 364.863 113.192 364.405 112.126 363.398C112.119 362.795 112.168 362.629 112.525 362.112C114.552 359.18 141.303 341.031 145.808 338.538C147.337 337.693 148.947 336.989 150.691 336.742C152.769 336.448 154.893 336.891 156.871 337.524C163.21 339.553 169.249 343.222 175.301 345.98C178.195 347.299 184.171 349.263 186.333 350.848C190.154 354.939 203.025 359.685 208.616 362.31L249.294 381.843C252.618 383.402 255.931 384.999 259.297 386.465C263.535 388.31 267.983 390.047 272.002 392.341C273.47 393.179 274.532 394.099 275.32 395.599C274.389 396.031 274.011 396.614 273.517 397.493L274.199 397.978C274.729 398.141 275.086 398.234 275.556 398.532L275.839 399.265C275.249 400.428 274.379 401.187 273.301 401.905C267.481 405.783 260.783 408.639 254.631 411.974C250.519 414.203 244.286 418.402 240.077 419.793C239.694 419.919 239.305 420.026 238.911 420.113C238.676 420.226 238.592 420.277 238.31 420.352C233.624 421.597 230.748 419.554 226.805 417.524L226.96 416.73C227.316 416.88 227.538 416.943 227.923 416.864C230.452 416.344 232.678 417.849 234.996 416.401C235.723 416.048 236.344 415.899 236.788 415.212L237.147 414.765C237.346 414.879 237.427 414.963 237.655 414.972C238.95 415.027 241.61 412.976 242.61 412.175C243.127 411.926 243.544 411.509 243.982 411.141L246.289 410.006L247.432 409.312C249.546 408.182 251.624 406.987 253.665 405.73C253.148 405.658 252.556 405.635 252.1 405.366C251.801 405.189 251.716 404.574 251.612 404.247L253.13 404.262C253.634 404.647 254.151 405.286 254.832 405.145C254.982 405.114 255.216 404.996 255.36 404.928C256.831 403.78 258.791 402.906 260.408 401.941C263.932 399.837 267.163 397.279 270.019 394.331C268.216 393.734 266.669 392.719 264.922 392.068C263.445 391.518 262.767 391.642 261.338 392.286L260.519 392.137C261.035 391.607 261.522 391.057 262.009 390.501C257.083 388.606 252.737 385.566 247.727 383.781L247.056 383.412C244.517 381.882 241.901 380.667 239.195 379.472L238.474 379.322C236.266 378.465 234.193 377.158 231.943 376.278L231.324 375.863C228.819 374.452 226.023 373.544 223.425 372.309C216.548 369.116 209.743 365.767 203.018 362.265C202.401 362.131 201.92 361.829 201.368 361.533C201.262 361.471 201.158 361.406 201.051 361.347C199.679 360.594 196.097 358.528 194.617 358.926L194.164 358.632C193.528 357.675 188.792 355.739 187.518 355.038L187.066 354.627C185.037 353.37 182.547 352.708 180.324 351.841L179.06 350.878C176.768 349.704 174.38 348.409 171.922 347.617C170.166 347.051 164.545 346.727 163.455 345.453C163.06 344.99 163.088 344.718 162.577 344.278L162.289 344.859C162.267 344.763 162.256 344.664 162.222 344.571C161.999 343.971 161.553 343.8 161.021 343.5C159.796 342.811 158.267 342.244 156.869 342.644L156.681 343.234L156.277 342.688C155.677 342.815 155.324 343.211 154.887 343.609L154.096 344.181C153.892 344.01 153.711 343.778 153.531 343.58C153.818 342.788 154.463 342.548 155.094 342.025C154.545 341.807 154.008 341.75 153.428 341.677C153.46 340.968 153.463 340.893 153.884 340.327C154.22 340.226 154.511 340.149 154.861 340.1C153.99 339.266 153.577 338.98 152.322 338.987C151.126 338.994 149.297 339.264 148.417 340.169C147.85 340.754 147.626 341.768 147.407 342.531C146.721 343.328 144.936 344.218 143.877 344.254C143.749 344.259 143.621 344.255 143.493 344.255C140.519 344.595 138.1 346.545 135.736 348.218L134.741 349.027C133.085 350.019 130.558 351.126 129.285 352.57C129.324 353.214 129.272 352.91 129.424 353.482L128.757 353.515L128.341 353.115C127.712 353.344 127.607 353.413 127.174 353.922L127.266 354.236C127.004 354.473 126.856 354.691 126.506 354.772C125.217 354.795 123.469 355.706 122.557 356.608C121.673 357.484 121.205 358.563 121.272 359.812C121.312 360.55 121.586 361.55 122.131 362.071C122.419 362.347 122.843 362.569 123.185 362.775L123.305 363.241C122.905 363.795 122.882 363.84 122.237 364.053C121.618 363.826 121.015 363.587 120.41 363.322C120.483 362.311 121.053 360.777 120.697 359.849C120.159 359.791 119.76 360.013 119.344 360.359C117.981 361.492 119.685 362.565 116.187 364.242L116.652 364.744L116.042 365.41Z"/><path fill="#A48D84" transform="scale(2 2)" d="M250.763 411.315C253.908 408.95 257.467 407.008 260.849 405.001C265.058 402.476 269.281 399.973 273.517 397.493L274.199 397.978C274.729 398.141 275.086 398.234 275.556 398.532L275.839 399.265C275.249 400.428 274.379 401.187 273.301 401.905C267.481 405.783 260.783 408.639 254.631 411.974C250.519 414.203 244.286 418.402 240.077 419.793C239.694 419.919 239.305 420.026 238.911 420.113C241.265 418.294 243.414 416.052 245.758 414.157C247.455 413.513 249.186 412.239 250.763 411.315Z"/><path fill="#B29F96" transform="scale(2 2)" d="M250.763 411.315C253.908 408.95 257.467 407.008 260.849 405.001C265.058 402.476 269.281 399.973 273.517 397.493L274.199 397.978C271.004 400.497 254.163 411 250.763 411.315Z"/><path fill="#D2CAC5" transform="scale(2 2)" d="M234.996 416.401C235.19 416.623 235.373 416.848 235.631 417.001C239.075 419.032 242.467 415.037 245.551 414.207C245.62 414.188 245.689 414.174 245.758 414.157C243.414 416.052 241.265 418.294 238.911 420.113C238.676 420.226 238.592 420.277 238.31 420.352C233.624 421.597 230.748 419.554 226.805 417.524L226.96 416.73C227.316 416.88 227.538 416.943 227.923 416.864C230.452 416.344 232.678 417.849 234.996 416.401Z"/><path fill="#F2F1F0" transform="scale(2 2)" d="M153.428 341.677C154.008 341.75 154.545 341.807 155.094 342.025C154.463 342.548 153.818 342.788 153.531 343.58C153.711 343.778 153.892 344.01 154.096 344.181L154.887 343.609C155.324 343.211 155.677 342.815 156.277 342.688L156.681 343.234C158.646 343.482 160.483 344.83 162.289 344.859L162.577 344.278C163.088 344.718 163.06 344.99 163.455 345.453C164.545 346.727 170.166 347.051 171.922 347.617C174.38 348.409 176.768 349.704 179.06 350.878C177.457 352.115 171.796 356.806 170.197 356.525C168.532 356.233 166.473 355.099 165.003 354.272L164.631 353.914C164.619 353.9 164.607 353.886 164.594 353.873C164.025 353.335 163.997 353.2 163.232 353.173C159.185 351.145 154.976 349.439 150.942 347.376C150.279 347.037 148.996 346.496 148.765 345.792C149.392 345.398 150.09 345.004 150.651 344.524C151.606 343.707 152.318 342.241 153.428 341.677Z"/><path fill="#D2CAC5" transform="scale(2 2)" d="M154.096 344.181L154.887 343.609C154.949 343.715 155.007 343.824 155.074 343.927C156.842 346.679 162.031 345.123 163.689 348.279C161.25 348.33 155.796 344.259 154.096 344.181Z"/><path fill="#D2CAC5" transform="scale(2 2)" d="M163.232 353.173C164.987 352.214 166.348 351.157 167.95 350.004L168.328 350.128C167.867 351.162 165.918 352.649 164.999 353.408C164.688 353.665 164.803 353.527 164.631 353.914C164.619 353.9 164.607 353.886 164.594 353.873C164.025 353.335 163.997 353.2 163.232 353.173Z"/><path fill="#B29F96" transform="scale(2 2)" d="M222.105 405.137L222.46 405.544L222.002 406.277C222.273 406.921 222.602 407.013 223.246 407.257C223.966 407.53 224.741 407.72 225.481 407.934L225.376 408.632C224.299 409.237 222.242 408.589 220.8 409.179C220.694 409.272 220.589 409.365 220.482 409.456C219.995 409.87 219.442 410.146 218.876 410.436L218.692 410.902C218.991 411.384 219.283 411.84 219.88 411.974C220.406 412.093 221.006 411.987 221.519 411.857C222.158 412.185 222.733 412.432 223.419 412.644C224.47 412.605 225.131 411.921 225.915 411.295C226.871 410.946 227.634 410.631 228.449 410.015C230.095 410.498 232.085 408.364 233.605 407.689C234.118 407.862 234.408 407.781 234.935 407.711C236.503 407.453 241.883 410.655 243.982 411.141C243.544 411.509 243.127 411.926 242.61 412.175C241.61 412.976 238.95 415.027 237.655 414.972C237.427 414.963 237.346 414.879 237.147 414.765L236.788 415.212C236.344 415.899 235.723 416.048 234.996 416.401C232.678 417.849 230.452 416.344 227.923 416.864C227.538 416.943 227.316 416.88 226.96 416.73L226.805 417.524C222.953 415.208 218.916 413.609 214.759 411.943L215.119 410.782C216.94 408.176 219.544 407.168 221.943 405.267L222.105 405.137ZM239.227 410.604C238.819 410.318 238.955 410.34 238.528 410.268C237.08 410.022 234.556 409.573 233.308 410.494L233.027 411.215C234.109 411.356 235.204 411.554 236.297 411.523L237.331 411.533C237.761 411.93 238.193 412.364 238.725 412.62C239.227 412.862 239.326 412.958 239.865 412.763L239.92 412.147C239.593 411.735 239.38 411.488 239.274 410.957C239.25 410.84 239.243 410.722 239.227 410.604Z"/><path fill="#F2F1F0" fill-opacity="0.90588236" transform="scale(2 2)" d="M233.308 410.494C234.556 409.573 237.08 410.022 238.528 410.268C238.955 410.34 238.819 410.318 239.227 410.604C239.243 410.722 239.25 410.84 239.274 410.957C239.38 411.488 239.593 411.735 239.92 412.147L239.865 412.763C239.326 412.958 239.227 412.862 238.725 412.62C238.193 412.364 237.761 411.93 237.331 411.533L236.297 411.523L236.4 411.292L236.207 410.854C235.286 410.408 234.309 410.499 233.308 410.494Z"/><path fill="#F2F1F0" fill-opacity="0.54509807" transform="scale(2 2)" d="M233.308 410.494C234.309 410.499 235.286 410.408 236.207 410.854L236.4 411.292L236.297 411.523C235.204 411.554 234.109 411.356 233.027 411.215L233.308 410.494Z"/><path fill="#F2F1F0" transform="scale(2 2)" d="M229.406 413.782C229.85 413.234 230.246 412.561 230.953 412.36C231.499 412.864 231.502 413.373 231.687 414.074C232.206 414.104 232.594 414.113 233.063 414.349C233.698 413.983 234.087 413.509 234.555 412.962C235.442 413.47 236.519 413.942 237.147 414.765L236.788 415.212C236.344 415.899 235.723 416.048 234.996 416.401C232.678 417.849 230.452 416.344 227.923 416.864C227.538 416.943 227.316 416.88 226.96 416.73C226.792 416.059 226.652 415.602 226.866 414.914C227.464 414.216 228.546 414.037 229.406 413.782Z"/><path fill="#A48D84" transform="scale(2 2)" d="M234.555 412.962C235.442 413.47 236.519 413.942 237.147 414.765L236.788 415.212C236.722 415.164 236.657 415.114 236.59 415.067C235.543 414.327 234.879 414.394 233.659 414.615L233.403 414.663L233.063 414.349C233.698 413.983 234.087 413.509 234.555 412.962Z"/><path fill="#F2F1F0" transform="scale(2 2)" d="M239.227 410.604C240.375 411.096 241.511 411.58 242.61 412.175C241.61 412.976 238.95 415.027 237.655 414.972C237.427 414.963 237.346 414.879 237.147 414.765C236.519 413.942 235.442 413.47 234.555 412.962C234.173 412.926 233.947 412.746 233.62 412.557C233.104 412.261 232.608 411.956 232.114 411.623L232.304 411.281C232.384 411.297 232.464 411.334 232.545 411.327C232.71 411.312 232.867 411.252 233.027 411.215C234.109 411.356 235.204 411.554 236.297 411.523L237.331 411.533C237.761 411.93 238.193 412.364 238.725 412.62C239.227 412.862 239.326 412.958 239.865 412.763L239.92 412.147C239.593 411.735 239.38 411.488 239.274 410.957C239.25 410.84 239.243 410.722 239.227 410.604Z"/><path fill="#D2CAC5" transform="scale(2 2)" d="M233.62 412.557C233.947 412.746 234.173 412.926 234.555 412.962C234.087 413.509 233.698 413.983 233.063 414.349C232.594 414.113 232.206 414.104 231.687 414.074C232.427 413.687 233.004 413.112 233.62 412.557Z"/><path fill="#F2F1F0" transform="scale(2 2)" d="M134.741 349.027C134.797 349.071 134.852 349.116 134.908 349.159C138.105 351.593 142.49 353.375 146.289 354.608C147.231 354.914 150.136 354.91 150.673 355.528C150.988 355.889 151.922 358.017 151.976 358.497C151.994 358.658 151.959 358.821 151.95 358.983C151.136 358.8 151.137 358.046 150.264 358.114C150.183 358.185 150.103 358.257 150.021 358.327C148.604 359.536 146.994 360.542 145.395 361.491C141.483 360.688 130.523 356.547 127.266 354.236L127.174 353.922C127.607 353.413 127.712 353.344 128.341 353.115L128.757 353.515L129.424 353.482C129.272 352.91 129.324 353.214 129.285 352.57C130.558 351.126 133.085 350.019 134.741 349.027Z"/><path fill="#B29F96" transform="scale(2 2)" d="M159.279 385.107C162.05 385.571 174.177 392.083 177.551 393.691C182.071 395.801 186.619 397.852 191.192 399.842C192.854 400.574 195.614 402.191 197.42 402.323C198.256 402.384 198.936 402.123 199.588 401.62C201.08 400.469 202.267 398.531 204.229 398.181C206.362 398.595 210.014 399.886 211.456 401.529C211.128 401.584 211.319 401.596 210.924 401.356C209.268 400.349 207.484 400.031 205.771 399.147C205.123 398.813 204.831 398.55 204.075 398.786C202.551 399.264 200.387 401.624 199.134 402.711C200.758 403.746 204.96 407.101 206.858 406.762C207.088 406.721 207.065 406.688 207.236 406.537C208.48 405.435 210.183 404.856 211.559 403.87C213.336 402.597 214.916 400.717 216.849 399.709C217.617 399.309 218.419 399.156 219.28 399.246C220.574 399.382 221.505 399.952 222.447 400.799L223.31 401.579C224.307 400.61 225.325 399.479 226.708 399.114L226.797 399.424C226.164 400.421 225.427 401.699 224.235 402.049C222.736 401.979 221.83 400.815 220.534 400.225C218.602 399.345 211.611 404.596 209.904 406.147C209.51 406.506 209.267 406.858 209.088 407.356C208.775 408.027 208.38 408.447 208.6 409.177C203.171 406.306 197.699 403.417 192.113 400.861C187.655 398.821 183.085 397.045 178.642 394.965C173.57 392.592 168.39 389.215 162.983 387.8L163.359 387.672C162.228 386.759 160.697 386.214 159.384 385.599L159.279 385.107Z"/><path fill="#D2CAC5" transform="scale(2 2)" d="M142.783 377.312C143.885 377.74 145.608 378.324 146.402 379.189L146.254 379.518C147.036 380.005 148.335 380.145 149.225 379.944C151.543 380.917 157.464 383.627 159.279 385.107L159.384 385.599C160.697 386.214 162.228 386.759 163.359 387.672L162.983 387.8C162.486 388.114 162.027 388.53 161.432 388.579C157.768 388.882 148.63 383.858 145.602 381.863C144.033 380.83 142.667 379.634 141.295 378.356C141.785 377.999 142.281 377.651 142.783 377.312Z"/><path fill="#D2CAC5" transform="scale(2 2)" d="M135.736 348.218C136.06 349.295 136.809 349.712 137.78 350.25C141.43 352.272 145.73 353.721 149.74 354.778C151.206 353.681 153.723 351.317 155.591 351.381C155.338 351.654 155.167 351.78 154.866 351.988C153.74 352.767 151.898 353.818 151.187 354.942C152.098 355.387 152.961 355.604 153.432 356.53C153.277 357.492 152.09 359.029 152.67 359.854C153.407 360.903 155.616 361.174 156.782 361.714C157.403 361.62 157.699 361.546 158.114 361.045C158.865 360.137 159.22 358.985 160.253 358.338C160.867 358.378 161.221 358.445 161.645 358.976C161.74 359.095 161.781 359.248 161.849 359.384C161.237 360.757 158.708 362.121 157.407 362.817C155.468 361.848 153.115 361.466 151.392 360.216C151.263 360.122 151.13 360.033 151.001 359.939C150.922 359.881 150.845 359.819 150.767 359.759C148.766 360.15 147.558 360.807 145.893 362.005C144.95 362.037 143.911 362.125 142.978 361.983C138.747 361.34 130.994 356.327 126.506 354.772C126.856 354.691 127.004 354.473 127.266 354.236C130.523 356.547 141.483 360.688 145.395 361.491C146.994 360.542 148.604 359.536 150.021 358.327C150.103 358.257 150.183 358.185 150.264 358.114C151.137 358.046 151.136 358.8 151.95 358.983C151.959 358.821 151.994 358.658 151.976 358.497C151.922 358.017 150.988 355.889 150.673 355.528C150.136 354.91 147.231 354.914 146.289 354.608C142.49 353.375 138.105 351.593 134.908 349.159C134.852 349.116 134.797 349.071 134.741 349.027L135.736 348.218Z"/><path fill="#B29F96" transform="scale(2 2)" d="M143.493 344.255C143.621 344.255 143.749 344.259 143.877 344.254C144.936 344.218 146.721 343.328 147.407 342.531C147.626 341.768 147.85 340.754 148.417 340.169C149.297 339.264 151.126 338.994 152.322 338.987C153.577 338.98 153.99 339.266 154.861 340.1C154.511 340.149 154.22 340.226 153.884 340.327C153.463 340.893 153.46 340.968 153.428 341.677C152.318 342.241 151.606 343.707 150.651 344.524C150.09 345.004 149.392 345.398 148.765 345.792C148.996 346.496 150.279 347.037 150.942 347.376C154.976 349.439 159.185 351.145 163.232 353.173C163.997 353.2 164.025 353.335 164.594 353.873C164.607 353.886 164.619 353.9 164.631 353.914L165.003 354.272L164.788 354.716C164.186 354.696 163.842 354.692 163.322 355.012C162.672 355.414 160.964 356.591 160.276 356.49C159.912 355.455 161.726 355.209 162.09 354.194C161.951 353.96 161.916 353.863 161.673 353.673C161.52 353.553 144.027 344.395 143.493 344.255Z"/><path fill="#A48D84" transform="scale(2 2)" d="M116.652 364.744C120.447 366.22 124.033 367.951 127.639 369.833C131.196 371.69 134.616 373.726 138.474 374.901C140.513 372.894 143.455 370.927 146.124 369.874C145.564 371.275 141.024 373.588 139.664 374.558C140.611 375.755 141.349 376.68 142.783 377.312C142.281 377.651 141.785 377.999 141.295 378.356C136.494 374.314 122.268 367.876 116.042 365.41L116.652 364.744Z"/><path fill="#D2CAC5" transform="scale(2 2)" d="M179.06 350.878L180.324 351.841C176.82 352.653 173.871 355.384 171.152 357.601C172.436 358.156 173.738 358.689 175.008 359.275L170.637 358.654C169.888 359.295 169.256 359.851 168.336 360.223C168.789 359.251 169.631 358.297 169.738 357.231C168.41 356.067 165.876 356.089 164.788 354.716L165.003 354.272C166.473 355.099 168.532 356.233 170.197 356.525C171.796 356.806 177.457 352.115 179.06 350.878Z"/><path fill="#D2CAC5" transform="scale(2 2)" d="M260.129 396.636C259.716 397.078 259.414 397.464 258.81 397.637L258.595 397.254C258.882 396.358 259.57 396.673 260.048 395.873C259.656 395.592 259.348 395.43 258.889 395.284C257.548 395.71 256.979 397.176 255.78 397.746C255.178 398.033 255.033 397.911 254.481 397.655L254.491 397.235C256.646 395.625 258.477 393.858 260.519 392.137L261.338 392.286C261.389 392.35 261.436 392.417 261.491 392.478C262.061 393.11 262.573 393.122 263.371 393.137C263.454 393.139 263.537 393.138 263.621 393.139C262.704 394.177 261.317 394.632 260.288 395.545C261.057 396.361 262.28 396.453 263.366 396.543L263.636 396.563L262.358 396.542L262.484 396.619L260.129 396.636Z"/><path fill="#D2CAC5" transform="scale(2 2)" d="M247.056 383.412L247.727 383.781C247.329 383.843 247.452 383.78 247.144 383.976C246.157 384.602 244.441 385.285 243.748 386.18C244.026 388.73 255.03 391.268 257.303 393.616L257.184 393.909C256.585 393.961 243.743 387.846 242.808 387.149C242.353 386.81 242.3 386.803 242.209 386.222C242.894 385.294 244.644 384.092 245.748 383.773C246.183 383.647 246.62 383.545 247.056 383.412Z"/><path fill="#D2CAC5" transform="scale(2 2)" d="M224.208 403.831C224.818 403.452 225.198 403.166 225.952 403.233L226.191 403.642C225.939 404.372 225.234 405.064 225.222 405.786L225.498 405.923L225.792 405.797C226.086 406.271 226.021 406.344 226.022 406.877L225.786 407.271C225.505 407.748 225.58 407.545 225.481 407.934C224.741 407.72 223.966 407.53 223.246 407.257C222.602 407.013 222.273 406.921 222.002 406.277L222.46 405.544L222.105 405.137C222.777 404.461 223.31 404.146 224.208 403.831Z"/><path fill="#B29F96" transform="scale(2 2)" d="M222.105 405.137C222.777 404.461 223.31 404.146 224.208 403.831L224.283 404.491C223.714 404.998 223.148 405.247 222.46 405.544L222.105 405.137Z"/><path fill="#B29F96" transform="scale(2 2)" d="M146.402 379.189L146.689 378.939C147.004 378.66 147.265 378.362 147.543 378.047C149.417 375.921 151.924 373.79 154.746 373.136L155.272 373.272C154.827 374.895 148.587 377.064 148.1 378.583C148.063 378.698 148.294 379.122 148.317 379.155C148.516 379.442 148.948 379.723 149.225 379.944C148.335 380.145 147.036 380.005 146.254 379.518L146.402 379.189Z"/><path fill="#B29F96" transform="scale(2 2)" d="M233.605 407.689C232.554 406.549 230.533 405.237 229.041 404.907C228.721 404.836 228.89 404.931 228.623 404.64C231.942 403.853 235.058 402.504 238.266 401.372C236.44 402.851 234.26 404.007 232.257 405.234C233.132 406.082 234 406.928 234.935 407.711C234.408 407.781 234.118 407.862 233.605 407.689Z"/><path fill="#F09C8E" transform="scale(2 2)" d="M209.088 407.356C210.881 408.829 213.173 409.537 215.119 410.782L214.759 411.943C212.664 411.214 210.626 410.094 208.6 409.177C208.38 408.447 208.775 408.027 209.088 407.356Z"/><path fill="#B29F96" transform="scale(2 2)" d="M201.368 361.533C201.92 361.829 202.401 362.131 203.018 362.265C201.095 363.435 198.922 364.222 197.109 365.559L196.731 365.841C196.244 366.199 195.307 366.939 194.701 366.848C196.341 364.614 198.946 363.607 200.997 361.855L201.368 361.533Z"/><path fill="#B29F96" transform="scale(2 2)" d="M187.066 354.627L187.518 355.038C185.179 356.63 180.195 358.732 178.883 361.107L178.551 361.708L177.62 361.974C177.875 361.104 178.314 360.367 178.756 359.579C181.707 358.202 184.378 356.448 187.066 354.627Z"/><path fill="#D2CAC5" transform="scale(2 2)" d="M178.883 361.107L179.402 361.291C178.95 362.387 179.092 362.944 179.417 364.036C179.08 364.103 179.224 364.046 178.898 364.244C177.953 364.817 177.525 365.203 176.395 364.966L176.232 364.516C176.825 363.744 177.112 362.807 177.62 361.974L178.551 361.708L178.883 361.107Z"/><path fill="#D2CAC5" transform="scale(2 2)" d="M225.989 384.151C224.97 384.836 224.032 385.622 223.013 386.31C223.373 385.531 224.024 384.552 223.881 383.711C222.884 383.214 221.781 382.637 220.897 381.953C220.385 381.556 219.98 381.299 219.88 380.652C220.819 380.489 221.384 381.749 222.249 382.052C222.967 382.304 223.123 382.17 223.719 381.812L223.866 382.06C223.567 382.292 223.726 382.129 223.479 382.623C223.962 383.375 225.197 383.772 225.989 384.151Z"/><path fill="#9A8886" transform="scale(2 2)" d="M231.324 375.863L231.943 376.278C228.799 377.051 226.921 380.871 223.866 382.06L223.719 381.812C225.555 379.557 228.82 377.331 231.324 375.863Z"/><path fill="#9A8886" transform="scale(2 2)" d="M194.164 358.632L194.617 358.926C194.522 359.011 194.432 359.104 194.331 359.183C193.003 360.225 188.051 363.806 186.778 364.358C186.251 364.587 185.712 364.52 185.165 364.448C185.089 364.323 184.975 364.214 184.938 364.073C188.364 363.17 191.212 360.574 194.164 358.632Z"/><path fill="#D2CAC5" transform="scale(2 2)" d="M225.915 411.295C225.295 411.076 225.058 411.062 224.659 410.552C224.718 410.431 224.769 410.306 224.836 410.189C225.287 409.396 225.968 409.242 226.781 409.01C227.539 409.144 227.902 409.519 228.449 410.015C227.634 410.631 226.871 410.946 225.915 411.295Z"/><path fill="#B29F96" transform="scale(2 2)" d="M179.402 361.291C180.218 361.491 180.284 361.438 180.766 362.111C180.82 362.737 180.684 362.977 180.365 363.509L179.417 364.036C179.092 362.944 178.95 362.387 179.402 361.291Z"/><path fill="#9A8886" transform="scale(2 2)" d="M238.474 379.322L239.195 379.472C239.139 379.629 239.094 379.789 239.028 379.941C238.736 380.612 238.044 380.847 237.427 381.13L237.141 381.009C237.268 380.264 237.944 379.812 238.474 379.322Z"/><path fill="#B29F96" transform="scale(2 2)" d="M226.759 396.439C227.445 395.74 228.125 395.045 228.848 394.384C229.275 393.993 229.46 393.706 229.679 393.174C229.601 392.593 229.645 392.423 229.148 392.054C228.857 391.837 228.463 391.675 228.137 391.511L228.128 391.201C230.226 390.015 232.94 388.488 235.281 387.987C234.87 389.05 230.93 390.683 229.82 391.322C230.473 392.006 231.494 392.83 231.74 393.753C230.696 394.918 229.77 394.09 227.513 397.06C229.534 398.644 231.897 399.602 234.213 400.674C235.398 399.974 236.697 398.791 237.93 398.337L238.187 398.576C238.015 399.373 237.628 399.87 236.948 400.312C235.823 401.043 234.494 401.111 233.218 400.807C228.361 399.65 224.759 395.469 219.949 394.239C218.493 395.402 217.392 396.733 216.407 398.315C215.811 398.355 215.936 398.352 215.503 398.054L215.517 397.148C216.645 396.005 217.757 394.75 219.004 393.741C222.47 394.134 223.784 395.845 226.759 396.439Z"/><path fill="#D2CAC5" transform="scale(2 2)" d="M156.205 373.779C159.225 374.728 161.996 376.561 164.767 378.054C170.07 380.911 175.462 383.954 180.874 386.578C182.151 387.197 183.651 387.692 185.04 387.991C186.105 388.22 187.316 388.159 188.303 388.627C187.114 388.626 185.591 388.791 184.442 388.533C181.799 387.938 157.176 375.106 156.205 373.779Z"/><path fill="#9A8886" transform="scale(2 2)" d="M208.171 365.721C208.312 365.941 208.227 365.781 208.307 366.248C206.614 368.671 202.913 369.259 200.886 371.3C201.38 372.211 205.076 373.872 206.203 374.883C206.279 374.951 206.352 375.022 206.427 375.092C204.616 374.584 203.165 373.691 201.458 372.959C200.291 372.459 199.874 372.524 198.752 372.981C197.648 374.026 196.482 375.526 194.861 375.545C194.233 375.23 193.584 375.005 193.216 374.375L193.472 374.143C194.106 374.22 194.724 374.335 195.349 374.458C197.013 373.727 198.645 372.1 200.16 371.052C202.794 369.229 205.527 367.542 208.171 365.721Z"/><path fill="#9A8886" transform="scale(2 2)" d="M205.303 385.47L205.46 385.501L205.565 385.736C203.924 387.742 201.815 389.075 199.882 390.754C197.923 389.975 195.904 388.536 193.84 388.187C192.053 387.885 190.972 388.707 189.562 389.67C189.31 389.73 189.467 389.725 189.116 389.52C189.549 388.413 191.817 387.608 192.886 387.126C195.066 387.901 197.141 388.927 199.231 389.912L205.303 385.47Z"/><path fill="#B29F96" transform="scale(2 2)" d="M228.566 379.539C229.127 379.501 229.671 379.469 230.203 379.7C231.458 380.245 232.838 381.531 234.041 382.282C235.225 383.02 236.511 383.531 237.735 384.196C237.279 384.404 235.713 383.788 235.161 383.637C234.603 384.123 233.999 384.542 233.398 384.972C232.444 385.699 231.507 386.518 230.26 386.584C231.241 385.213 233.224 384.796 234.244 383.489C232.9 381.649 229.562 381.417 228.566 379.539Z"/><path fill="#9A8886" transform="scale(2 2)" d="M126.901 362.062C128.803 362.949 132.439 364.091 133.736 365.655C131.703 365.194 130.019 364.258 128.213 363.258L128.055 363.032L127.518 362.969C126.162 363.806 122.793 366.106 121.275 365.922C121.763 364.522 125.476 363.57 126.601 362.392C126.704 362.285 126.801 362.172 126.901 362.062Z"/><path fill="#9A8886" transform="scale(2 2)" d="M210.736 372.019L210.819 372.12C210.773 372.902 208.774 374.529 208.179 375.176C207.797 375.592 207.183 376.171 207.215 376.74C207.497 376.659 207.779 376.581 208.062 376.506C209.353 376.16 209.815 376.199 210.957 376.862C210.855 376.852 210.751 376.851 210.649 376.832C209.792 376.672 208.897 376.745 208.127 377.217C208.054 377.262 207.991 377.322 207.923 377.374C206.495 377.835 205.151 378.476 203.709 378.908C203.878 378.507 203.793 378.577 204.056 378.332C206.249 376.285 208.332 373.784 210.736 372.019Z"/><path fill="#B29F96" transform="scale(2 2)" d="M146.806 363.506C147.364 363.517 147.136 363.466 147.605 363.631C148.456 363.931 149.333 364.148 150.204 364.383C147.619 364.363 146.316 364.691 144.166 366.083C143.237 366.82 142.331 367.546 141.162 367.826L141.22 367.581L141.433 367.796L141.098 367.718C142.1 365.699 144.846 364.439 146.806 363.506Z"/><path fill="#9A8886" transform="scale(2 2)" d="M222.18 388.086C222.263 388.119 222.346 388.149 222.427 388.185C223.145 388.504 223.653 388.748 223.943 389.479C222.925 390.598 220.996 391.425 219.695 392.286C219.246 392.594 219.115 392.81 218.557 392.803C219.15 391.106 221.727 391.14 222.18 388.086Z"/><path fill="#B29F96" transform="scale(2 2)" d="M222.756 373.242L222.932 373.457L222.707 373.895C220.386 375.38 218.336 377.254 216.048 378.778C215.169 379.364 214.577 379.341 213.575 379.127L213.386 378.537L213.588 378.237C214.122 378.32 215.048 378.57 215.561 378.399C216.835 377.976 221.111 374.281 222.756 373.242Z"/><path fill="#A48D84" transform="scale(2 2)" d="M157.472 363.668C158.006 363.737 158.141 363.751 158.573 364.062C158.169 365.326 155.72 366.431 154.608 367.09L153.967 367.172L153.66 366.896C154.207 365.697 156.381 364.422 157.472 363.668Z"/><path fill="#9A8886" transform="scale(2 2)" d="M206.645 381.45L206.892 381.325L207.039 381.561C205.666 383.042 203.259 383.939 201.476 384.811L201.146 384.686L201.26 384.268C201.711 383.944 204.343 381.53 204.59 381.524C205.522 381.505 204.868 381.924 206.645 381.45Z"/><path fill="#B29F96" transform="scale(2 2)" d="M183.664 375.935C183.947 375.973 184.022 375.97 184.326 376.086C185.792 376.648 191.547 379.534 192.729 380.374C193.241 380.738 193.51 381.181 193.78 381.734C190.628 379.601 186.251 378.68 183.664 375.935Z"/><path fill="#9A8886" transform="scale(2 2)" d="M168.955 362.933L169.627 363.142L169.716 363.453C168.655 364.546 167.014 365.509 165.592 366.038L164.842 365.751L164.715 365.361C165.375 364.667 166.173 364.38 166.971 363.89C167.627 363.487 168.228 363.192 168.955 362.933Z"/><path fill="#9A8886" transform="scale(2 2)" d="M191.674 367.177C192.265 367.301 192.024 367.151 192.396 367.628C192.308 367.88 192.303 367.951 192.109 368.187C191.667 368.723 188.244 371.048 187.597 371.162C187.305 371.214 187.004 371.138 186.708 371.126L185.945 370.374L185.975 370.096L187.494 370.403C188.983 369.847 190.491 368.237 191.674 367.177Z"/><path fill="#9A8886" transform="scale(2 2)" d="M179.475 367.205C179.963 367.634 180.162 367.646 180.29 368.308C179.018 369.427 177.386 370.141 175.905 370.962L175.49 371.181L175.273 370.906C175.796 369.763 178.426 368.158 179.475 367.205Z"/><path fill="#D2CAC5" transform="scale(2 2)" d="M207.98 394.515L208.782 393.923C209.689 395.37 213.839 396.649 215.517 397.148L215.503 398.054C215.166 397.719 215.301 397.779 214.921 397.631C212.536 396.701 210.168 395.87 207.98 394.515Z"/><path fill="#9A8886" transform="scale(2 2)" d="M240.766 391.129L241.191 391.546C241.284 391.893 241.445 392.18 241.315 392.535C240.798 393.945 238.138 395.175 236.843 395.868L236.641 395.653C236.708 394.582 239.86 393.877 240.766 391.129Z"/><path fill="#846864" transform="scale(2 2)" d="M191.227 385.092C193.537 384.592 195.34 382.861 197.612 382.172C196.097 383.573 193.988 385.872 191.781 385.82C191.512 385.814 191.441 385.784 191.21 385.725L191.227 385.092Z"/><path fill="#846864" transform="scale(2 2)" d="M189.193 372.283L189.431 372.438C188.089 374.171 184.877 373.515 183.521 376.177L183.188 375.831C183.093 375.313 183.15 375.258 183.428 374.827C184.111 373.767 185.918 373.162 187.095 372.893C187.817 372.728 188.493 372.527 189.193 372.283Z"/><path fill="#846864" transform="scale(2 2)" d="M216.945 379.727C217.097 380.015 217.159 379.987 217.064 380.289C216.714 381.404 214.049 383.196 212.96 383.643C212.685 383.245 212.549 383.155 212.505 382.659C213.885 381.652 215.409 381.085 216.714 379.935C216.792 379.867 216.868 379.796 216.945 379.727Z"/><path fill="#9A8886" transform="scale(2 2)" d="M157.701 368.725L157.878 369.245C157.347 370.728 154.905 371.799 153.608 372.569L153.344 372.334L153.405 371.956C154.8 370.847 156.173 369.649 157.701 368.725Z"/><path fill="#B29F96" transform="scale(2 2)" d="M135.176 365.331C135.519 365.478 135.618 365.581 135.868 365.845C135.242 367.424 132.072 368.669 130.616 369.568L130.202 369.646L130.141 369.294C132.011 368.019 133.786 367.221 135.176 365.331Z"/><path fill="#846864" transform="scale(2 2)" d="M197.044 376.59L197.185 376.727C196.242 377.972 193.771 378.661 192.352 379.223L192.075 378.721L192.266 378.27C193.739 377.451 195.437 377.065 197.044 376.59Z"/><path fill="#9A8886" transform="scale(2 2)" d="M214.212 385.68L214.64 385.812L214.716 386.209C213.7 387.444 212.389 388.4 211.154 389.406C210.908 389.388 211.058 389.427 210.778 389.133C211.193 387.783 213.133 386.542 214.212 385.68Z"/><path fill="#846864" transform="scale(2 2)" d="M167.931 368.197C168.25 368.227 168.586 368.304 168.902 368.36L168.983 368.67C167.953 369.538 166.441 369.963 165.198 370.465C165.13 370.509 165.07 370.568 164.994 370.597C164.509 370.779 164.628 370.78 164.303 370.603C164.822 369.632 166.953 368.656 167.931 368.197Z"/><path fill="#D2CAC5" transform="scale(2 2)" d="M191.21 385.725C188.988 384.249 186.633 383.938 184.308 382.837C183.942 382.664 183.631 382.595 183.499 382.191C183.95 382.145 184.113 382.207 184.542 382.39C186.55 383.248 189.596 383.629 191.227 385.092L191.21 385.725Z"/><path fill="#846864" transform="scale(2 2)" d="M207.98 394.515C207.733 394.301 207.881 394.452 207.608 394C208.356 392.234 210.333 391.076 211.811 389.955C210.956 391.437 209.913 392.646 208.782 393.923L207.98 394.515Z"/><path fill="#B29F96" transform="scale(2 2)" d="M241.203 387.883L241.641 388.254C241.33 389.023 240.687 389.484 239.937 389.845C238.473 390.548 237.817 390.44 236.336 389.872C236.241 389.752 236.163 389.501 236.102 389.357C236.889 389.26 237.654 389.806 238.337 390.152L241.203 387.883Z"/><path fill="#9A8886" transform="scale(2 2)" d="M200.211 390.735C202.471 390.978 204.961 392.225 206.633 393.77C204.93 393.669 201.561 391.772 200.211 390.735Z"/><path fill="#D2CAC5" transform="scale(2 2)" d="M249.168 391.883C249.329 392.007 249.468 392.215 249.599 392.373C249.574 392.467 249.56 392.565 249.525 392.656C249.132 393.671 247.752 394.204 246.839 394.662L246.47 394.369L246.44 393.896C247.394 393.269 248.278 392.597 249.168 391.883Z"/><path fill="#9A8886" transform="scale(2 2)" d="M244.702 401.913C245.012 402.197 244.879 402.017 245.053 402.486C244.546 403.552 243.55 404.303 242.692 405.091C242.167 404.835 242.375 405.028 242.082 404.499C242.473 403.573 243.814 402.879 244.527 402.105L244.702 401.913Z"/><path fill="#9A8886" transform="scale(2 2)" d="M165.657 372.642L165.996 373.03L165.882 373.691C165.005 374.716 163.774 375.361 162.641 376.072L162.312 375.731C162.986 374.387 164.853 374.225 165.657 372.642Z"/><path fill="#9A8886" transform="scale(2 2)" d="M175.939 372.959C176.262 373.329 176.167 373.102 176.145 373.67C175.205 374.788 173.917 375.555 172.632 376.221C172.454 376.007 172.545 376.153 172.459 375.734C173.665 374.851 174.813 373.943 175.939 372.959Z"/><path fill="#846864" transform="scale(2 2)" d="M183.442 378.166C183.841 378.194 183.609 378.152 184.121 378.364C183.84 379.209 182.337 380.134 181.637 380.795L181.283 380.886L181.111 380.535C181.67 379.614 182.646 378.886 183.442 378.166Z"/><path fill="#D2CAC5" transform="scale(2 2)" d="M242.806 398.389C243.333 398.443 243.865 398.588 244.245 398.991C244.745 399.522 244.683 399.831 244.599 400.479C244.141 400.539 243.87 400.529 243.427 400.395C242.915 399.726 242.934 399.212 242.806 398.389Z"/><path fill="#9A8886" transform="scale(2 2)" d="M222.682 377.07C222.71 377.074 222.737 377.077 222.765 377.082C224.197 377.342 225.352 377.559 226.228 378.791C226.09 378.777 225.949 378.774 225.812 378.75C224.81 378.576 223.244 377.895 222.682 377.07Z"/><path fill="#D2CAC5" transform="scale(2 2)" d="M214.774 402.99C216.279 403.169 217.718 404.384 218.901 405.277C217.486 405.104 215.648 404.104 214.774 402.99Z"/><path fill="#D2CAC5" transform="scale(2 2)" d="M174.903 377.448C176.13 377.805 177.481 378.699 178.482 379.488C178.314 379.567 178.251 379.621 178.061 379.617C176.965 379.6 175.667 378.154 174.903 377.448Z"/><path fill="#D2CAC5" transform="scale(2 2)" d="M155.37 356.021C156.482 356.267 157.129 356.595 157.78 357.549C156.78 357.544 156.206 357.274 155.439 356.683L155.37 356.021Z"/><path fill="#D2CAC5" transform="scale(2 2)" d="M193.774 369.334C195.077 369.103 195.929 369.448 197.104 369.96C195.93 370.055 194.81 369.915 193.774 369.334Z"/><defs><linearGradient id="gradient_4" gradientUnits="userSpaceOnUse" x1="298.99112" y1="338.19147" x2="231.97801" y2="362.14798"><stop offset="0" stop-color="#73553E"/><stop offset="1" stop-color="#9C7F68"/></linearGradient></defs><path fill="url(#gradient_4)" transform="scale(2 2)" d="M245.53 327.152C257.606 332.893 270.035 337.9 282.199 343.471C287.469 345.884 292.76 348.286 297.961 350.843C300.749 352.214 303.491 353.86 306.331 355.1C307.301 355.259 308.272 355.436 309.246 355.56C308.836 355.77 308.898 355.825 308.431 355.718C307.68 355.546 306.287 355.779 305.651 356.196C305.372 356.379 305.218 356.769 305.169 357.09C305.143 357.26 305.2 357.455 305.238 357.62C305.683 357.672 305.797 357.649 306.206 357.52L306.271 357.739C306.17 357.779 306.068 357.816 305.968 357.859C304.29 358.578 302.856 360.86 301.204 361.942C298.052 364.006 294.103 365.156 290.755 366.99C290.141 367.675 289.807 368.13 289.551 369.019C288.507 369.52 287.339 369.931 286.367 370.552L286.108 370.693C278.685 374.824 267.87 385.672 258.796 383.439C250.667 380.412 242.807 376.173 234.961 372.454C235.112 370.881 235.081 369.289 235.248 367.701C235.956 360.987 236.986 354.315 237.655 347.59C238.115 342.973 238.22 338.19 238.879 333.615C239.083 332.207 239.333 329.913 240.669 329.139C241.634 328.58 242.748 328.712 243.793 328.88C244.142 328.776 244.383 328.599 244.686 328.404L245.53 327.152Z"/><path fill="#B29F96" transform="scale(2 2)" d="M306.331 355.1C307.301 355.259 308.272 355.436 309.246 355.56C308.836 355.77 308.898 355.825 308.431 355.718C307.68 355.546 306.287 355.779 305.651 356.196C305.372 356.379 305.218 356.769 305.169 357.09C305.143 357.26 305.2 357.455 305.238 357.62C305.683 357.672 305.797 357.649 306.206 357.52L306.271 357.739C306.17 357.779 306.068 357.816 305.968 357.859C304.29 358.578 302.856 360.86 301.204 361.942C298.052 364.006 294.103 365.156 290.755 366.99C290.141 367.675 289.807 368.13 289.551 369.019C288.507 369.52 287.339 369.931 286.367 370.552L286.108 370.693C278.685 374.824 267.87 385.672 258.796 383.439C260.878 381.335 264.3 380.186 266.877 378.707C272.075 375.712 277.247 372.671 282.392 369.586C288.176 366.071 293.679 362.055 299.479 358.585C301.669 357.275 304.336 356.74 306.331 355.1Z"/><path fill="#D2CAC5" transform="scale(2 2)" d="M290.755 366.99C290.141 367.675 289.807 368.13 289.551 369.019C288.507 369.52 287.339 369.931 286.367 370.552C286.581 370.042 286.796 369.5 287.095 369.033C287.849 367.858 289.487 367.337 290.755 366.99Z"/><path fill="#A48D84" transform="scale(2 2)" d="M243.793 328.88C244.142 328.776 244.383 328.599 244.686 328.404C248.191 329.335 250.515 330.334 252.657 333.385C249.794 331.709 246.834 330.205 243.793 328.88Z"/><defs><linearGradient id="gradient_5" gradientUnits="userSpaceOnUse" x1="238.52039" y1="368.38425" x2="211.64606" y2="331.55099"><stop offset="0" stop-color="#A9907A"/><stop offset="1" stop-color="#CABEB7"/></linearGradient></defs><path fill="url(#gradient_5)" transform="scale(2 2)" d="M234.481 321.093C238.18 322.93 242.451 324.254 245.53 327.152L244.686 328.404C244.383 328.599 244.142 328.776 243.793 328.88C242.748 328.712 241.634 328.58 240.669 329.139C239.333 329.913 239.083 332.207 238.879 333.615C238.22 338.19 238.115 342.973 237.655 347.59C236.986 354.315 235.956 360.987 235.248 367.701C235.081 369.289 235.112 370.881 234.961 372.454C232.854 371.322 230.597 370.41 228.449 369.348C220.716 365.522 213.003 361.935 205.138 358.394C200.357 356.241 195.859 353.53 190.868 351.857C190.444 352.006 190.213 352.064 189.752 352.089L189.479 351.658C189.011 350.968 188.561 350.536 188.631 349.642C188.76 347.988 190.817 346.387 192.068 345.475C195.555 342.929 199.551 341.061 203.333 338.991L218.313 330.687C223.838 327.669 229.401 324.841 234.481 321.093Z"/><path fill="#D2CAC5" transform="scale(2 2)" d="M309.246 355.56C310.693 355.609 311.808 355.876 313.141 356.411C318.769 358.67 324.155 361.871 329.672 364.435C335.176 366.993 340.834 369.253 346.308 371.859C349.746 373.496 353.078 375.413 356.43 377.221C358.037 378.088 360.043 378.747 361.474 379.82L361.681 380.314L361.384 380.724C361.011 381.537 360.545 382.326 360.126 383.116C359.683 383.401 359.233 383.686 358.751 383.902C350.325 387.669 328.233 378.203 319.434 375.164C316.437 374.141 313.392 373.265 310.31 372.538C305.874 371.48 301.339 370.527 296.826 369.856C294.48 369.507 291.773 369.81 289.551 369.019C289.807 368.13 290.141 367.675 290.755 366.99C294.103 365.156 298.052 364.006 301.204 361.942C302.856 360.86 304.29 358.578 305.968 357.859C306.068 357.816 306.17 357.779 306.271 357.739L306.206 357.52C305.797 357.649 305.683 357.672 305.238 357.62C305.2 357.455 305.143 357.26 305.169 357.09C305.218 356.769 305.372 356.379 305.651 356.196C306.287 355.779 307.68 355.546 308.431 355.718C308.898 355.825 308.836 355.77 309.246 355.56Z"/><path fill="#D2CAC5" transform="scale(2 2)" d="M333.889 429.851C336.521 426.308 337.866 423.343 338.597 418.978C338.78 421.87 338.938 424.758 338.64 427.65C337.398 429.101 335.794 430.383 334.002 431.087C334.061 430.607 334.024 430.315 333.889 429.851Z"/><path fill="#564A4A" transform="scale(2 2)" d="M330.702 432.384L331.005 433.003C327.176 435.284 323.353 437.438 319.244 439.184C318.066 439.685 311.074 441.866 310.63 442.459L310.964 442.628C309.913 442.872 309.176 443.027 308.109 442.81C310.766 440.778 315.189 440.358 318.323 439.03C322.66 437.192 326.741 434.93 330.702 432.384Z"/><path fill="#A48D84" transform="scale(2 2)" d="M333.889 429.851C334.024 430.315 334.061 430.607 334.002 431.087C333.011 431.739 332.012 432.378 331.005 433.003L330.702 432.384C331.847 431.596 332.877 430.805 333.889 429.851Z"/><path fill="#D2CAC5" transform="scale(2 2)" d="M326.401 403.494C330.868 405.749 334.986 410.905 337.045 415.377C337.629 416.647 338.125 418.039 337.65 419.385C336.766 419.777 335.85 419.855 334.886 419.847C333.42 419.835 332.222 419.312 331.211 418.252C328.691 415.607 328.489 410.953 327.572 407.587C327.22 406.296 326.329 404.829 326.401 403.494Z"/><defs><linearGradient id="gradient_6" gradientUnits="userSpaceOnUse" x1="421.4043" y1="309.31339" x2="100.63055" y2="133.27867"><stop offset="0" stop-color="#C3B2A6"/><stop offset="1" stop-color="#DBDBDA" stop-opacity="0.98823529"/></linearGradient></defs><path fill="url(#gradient_6)" transform="scale(2 2)" d="M130.961 77.6522C131.413 77.3298 131.693 77.3022 131.815 76.7429L131.923 76.2594C131.941 76.1746 131.956 76.0891 131.974 76.0043C132.204 74.9176 132.813 74.0803 133.77 73.5048C135.927 72.2091 140.275 73.2337 142.567 73.917C145.549 74.8061 148.369 76.2735 151.181 77.589C157.666 80.622 163.964 84.0146 170.43 87.0726L232.751 116.545L335.567 164.752C344.058 168.756 352.636 172.619 361.179 176.513C364.85 178.186 368.739 179.595 372.289 181.498C376.242 183.616 379.878 186.756 381.996 190.761C383.213 193.044 383.995 195.533 384.303 198.102C385.266 206.423 384.552 215.118 384.54 223.479L384.78 263.683C384.779 266.037 384.332 274.345 385.139 275.891C385.706 276.023 386.251 276.122 386.831 276.187C385.964 276.249 385.6 276.159 384.914 276.718C384.778 277.045 384.668 277.299 384.628 277.655C384.437 279.327 384.642 281.204 384.597 282.906C384.42 289.536 384.52 296.189 384.52 302.821C384.676 321.962 384.659 341.104 384.469 360.245C384.434 365.748 385.653 373.097 384.058 378.284C383.196 381.086 381.295 382.969 378.623 384.097C377.526 384.56 376.369 384.849 375.22 385.148C374.999 383.951 377.739 381.352 378.125 379.872C378.631 377.932 379.827 360.504 379.539 359.237C379.491 359.024 379.32 358.859 379.211 358.671C379.437 358.237 379.466 357.867 379.484 357.387C379.791 349.231 379.535 340.975 379.558 332.806L379.725 283.765L379.814 234.819C379.838 224.733 380.133 214.691 379.733 204.603C379.491 198.506 378.944 193.722 374.19 189.4C369.92 185.517 359.33 181.58 353.795 178.967L317.435 161.982L219.506 115.956L162.007 88.9286C154.793 85.5823 147.65 81.5652 140.28 78.6231C137.154 77.3752 134.23 77.5151 130.961 77.6522Z"/><path fill="#F2F1F0" fill-opacity="0.58431375" transform="scale(2 2)" d="M145.312 214.815L145.539 214.387L146.436 214.786C146.876 215.446 147.351 216.153 147.228 216.988C147.213 217.088 147.18 217.186 147.156 217.285L146.714 217.371C145.921 216.833 145.603 215.698 145.312 214.815Z"/></svg>